<svg width="96" height="77" viewBox="0 0 96 77" fill="none" xmlns="http://www.w3.org/2000/svg">
<path fill-rule="evenodd" clip-rule="evenodd" d="M82.5379 60.9972C82.5362 61.9047 82.4024 62.5931 83.2515 62.8428C84.1404 63.1042 84.3082 62.4191 84.6039 61.8562C84.7501 61.5783 84.8756 61.1865 85.3089 61.2386C85.7574 61.2921 85.9049 61.628 85.9691 62.0335C86.0085 62.2816 85.9749 62.6113 86.2897 62.6975C86.6554 62.7973 86.8004 62.4709 86.9851 62.2406C88.5471 60.2951 89.7843 58.1491 90.7937 55.8785C91.4179 54.4735 91.9746 53.025 92.1419 51.4763C92.3735 49.3308 90.7482 48.1391 88.7662 48.9899C87.5948 49.4927 86.6529 50.3099 85.9554 51.3533C83.9495 54.3538 83.0105 57.7357 82.5379 60.9972ZM79.1389 61.8997C79.457 56.3312 80.9067 51.1031 83.8861 46.3431C84.6751 45.0827 85.791 44.1288 86.9909 43.2785C87.7315 42.7533 88.5864 43.0266 89.3991 42.9819C89.6485 42.9682 90.3762 43.6807 90.2122 42.6099C90.2022 42.5433 90.6239 42.6021 90.8244 42.6936C92.154 43.3025 93.2487 44.1454 93.9156 45.5102C95.8184 49.4049 95.6146 53.2872 93.9176 57.1691C92.429 60.5738 90.5319 63.6874 87.6918 66.1763C86.2557 67.4347 84.4606 67.6973 82.7508 68.0672C81.3056 68.3799 79.8497 67.0134 79.4744 65.3865C79.211 64.2445 79.1679 63.0777 79.1389 61.8997Z" fill="black"/>
<path fill-rule="evenodd" clip-rule="evenodd" d="M10.0701 66.9886C10.9167 64.218 10.8256 61.6996 9.53366 59.3001C8.57727 57.5236 7.29698 57.4416 5.99348 59.0094C5.04082 60.1551 4.47875 61.5095 4.03556 62.917C3.36994 65.0302 4.12709 66.4861 6.19313 67.2449C7.02402 67.5502 7.50408 67.3535 7.66313 66.5159C7.80064 65.7911 8.07195 65.1172 8.86928 65.1512C9.76065 65.1897 9.69313 66.0728 9.86544 66.7007C9.87455 66.7342 9.90727 66.762 10.0701 66.9886ZM13.4967 61.2527C13.5609 65.7029 12.3709 69.2812 10.0502 72.4945C9.54153 73.1999 8.96993 73.8572 8.2165 74.312C7.15863 74.9512 5.99183 74.6041 5.66834 73.4459C5.48692 72.7948 5.16881 72.6569 4.59928 72.5591C2.03538 72.1193 0.0923605 70.2525 0.0120058 67.6989C-0.154918 62.4075 1.49112 57.6276 5.10461 53.7478C7.7294 50.93 10.6073 51.6006 12.2579 55.1221C13.237 57.2117 13.4947 59.4468 13.4967 61.2527Z" fill="black"/>
<path fill-rule="evenodd" clip-rule="evenodd" d="M38.993 52.1947C38.9404 51.2942 38.7353 50.2554 37.7798 49.7985C36.9025 49.3789 36.21 50.1477 35.6508 50.7259C33.3491 53.1047 31.918 55.9734 31.1182 59.1636C30.9103 59.9916 31.4259 60.3975 32.1508 60.6415C32.8367 60.8726 33.2861 60.7488 33.5657 60.0111C33.7446 59.5393 33.9981 58.9681 34.66 59.0617C35.2366 59.1433 35.1194 59.7489 35.2846 60.132C35.3687 60.3263 35.3008 60.622 35.5853 60.6688C35.8376 60.7102 36.0157 60.4944 36.1114 60.3093C37.4232 57.7719 38.7126 55.2241 38.993 52.1947ZM27.3987 60.82C27.5888 56.7575 29.1259 53.0893 30.7939 49.4634C31.783 47.3141 33.0359 45.4092 35.2225 44.2354C37.1465 43.2024 38.9333 43.5507 39.9995 45.5032C41.6766 48.5758 42.3343 51.8335 41.298 55.283C40.3938 58.2934 39.0124 61.0511 36.9232 63.4328C36.6034 63.7969 36.1967 64.1701 35.7978 64.0595C34.9305 63.8192 34.5995 64.4351 34.2947 64.9169C33.4692 66.2237 32.2692 66.5364 30.89 66.2999C29.3661 66.0385 28.1438 65.3008 27.6236 63.7206C27.3117 62.7738 27.2587 61.807 27.3987 60.82Z" fill="black"/>
<path fill-rule="evenodd" clip-rule="evenodd" d="M12.3607 39.5113C12.6962 39.1779 12.712 38.8295 12.7762 38.5015C12.8491 38.13 13.1158 37.92 13.4182 38.0989C14.1633 38.5409 14.5233 38.0078 14.9333 37.5886C16.0401 36.4582 17.0379 35.2119 17.7789 33.8359C18.5824 32.3448 19.4332 30.8048 19.2157 28.9749C19.0807 27.8371 18.9755 26.5874 17.7143 26.2109C16.422 25.8253 15.4453 26.6707 14.5982 27.5736C14.5473 27.6279 14.5141 27.6983 14.4661 27.7559C12.6192 29.9864 11.7945 32.6907 11.133 35.4136C10.7764 36.8828 11.1707 38.3636 12.3607 39.5113ZM7.47562 38.3362C7.55515 34.8304 8.71781 31.6241 10.0271 28.4198C10.9305 26.2084 12.1399 24.253 13.6841 22.4661C15.036 20.9025 17.8054 20.2779 19.7066 21.3946C20.4186 21.8129 20.5449 22.7382 21.3224 23.053C20.4186 24.0351 21.783 24.4452 21.8641 25.1924C22.1951 28.2239 22.1007 31.1382 20.6779 33.9838C19.2853 36.7701 17.4633 39.1162 14.9838 40.9677C14.708 41.1739 14.6359 41.4017 14.6053 41.7223C14.5626 42.1655 14.5042 42.6286 14.3356 43.0345C13.3668 45.3702 11.746 45.7508 9.85521 44.0737C8.1429 42.5549 7.41349 40.6019 7.47562 38.3362Z" fill="black"/>
<path fill-rule="evenodd" clip-rule="evenodd" d="M72.2318 36.1783C72.1862 35.6025 72.2786 34.9419 71.6917 34.654C71.1449 34.386 70.7071 34.8719 70.2991 35.1846C69.7279 35.6228 69.2591 36.1712 68.8784 36.7784C67.3649 39.1936 66.3675 41.8044 65.9301 44.6292C65.8195 45.3458 65.805 46.2338 66.51 46.3689C67.2547 46.5113 68.3238 46.6853 68.7794 45.5703C68.9062 45.2596 69.0648 44.9502 69.2665 44.6835C71.1689 42.1602 71.6059 39.1381 72.2318 36.1783ZM63.0092 45.149C63.2565 41.2535 64.4046 37.3339 66.5121 33.6976C66.7755 33.2441 67.0949 32.8232 67.3591 32.3701C68.4282 30.5381 70.1156 29.8136 72.1353 29.7639C72.8328 29.747 73.2217 30.2995 73.5365 30.881C74.6756 32.9856 74.9659 35.2322 74.5008 37.541C73.5788 42.1154 71.8636 46.3792 69.2769 50.281C68.8146 50.9789 68.2207 51.5513 67.6122 52.0993C66.9246 52.7181 66.3394 52.4841 66.1066 51.5745C66.0271 51.2626 66.0498 50.9006 65.6149 50.7813C63.8802 50.305 63.6487 48.7344 63.2184 47.3551C63.0332 46.7603 63.0891 46.0905 63.0092 45.149Z" fill="black"/>
<path fill-rule="evenodd" clip-rule="evenodd" d="M55.7091 18.0276C54.7854 18.8485 54.4698 19.8414 53.976 20.7501C53.0689 22.4218 52.6585 24.1971 52.4087 26.0395C52.3673 26.346 52.3843 26.674 52.7475 26.7821C53.1025 26.8878 53.2872 26.5924 53.4454 26.3563C53.5888 26.1418 53.5995 25.7508 53.7789 25.6638C54.3849 25.3689 53.974 23.8802 55.27 24.4117C55.4357 24.4792 55.5898 24.1801 55.3926 24.0339C54.5319 23.3973 55.0807 22.6998 55.3156 22.0565C55.7757 20.7944 56.1063 19.5361 55.7091 18.0276ZM56.6046 12.971C55.3686 13.5488 55.8756 14.1482 56.5913 14.4207C58.227 15.0445 58.3293 16.5501 58.6292 17.8561C58.8209 18.6911 58.6594 19.6682 58.4403 20.5264C57.4491 24.4108 55.6639 27.951 53.5163 31.311C53.163 31.8644 52.5408 32.2251 52.1867 32.8175C52.0334 33.073 51.7369 33.2383 51.4038 33.1256C51.075 33.0142 50.9789 32.7818 51.0153 32.4206C51.0828 31.7472 50.7896 31.2389 50.2942 30.7514C48.9298 29.4102 49.0574 27.608 49.2015 25.9628C49.5689 21.7616 50.9855 17.8677 53.2789 14.3283C53.9773 13.2502 54.9515 12.4226 56.6046 12.971Z" fill="black"/>
<path fill-rule="evenodd" clip-rule="evenodd" d="M59.1626 68.2277C59.2509 68.5342 59.3391 68.8411 59.4675 69.2884C60.45 68.0446 61.1115 66.7552 61.5124 65.3515C61.7779 64.4216 61.0531 63.6172 60.0813 63.6686C59.1022 63.7199 58.3777 64.2634 57.8529 65.0354C56.4687 67.0725 55.8519 69.4206 55.4965 71.7939C55.3909 72.5014 55.4754 73.4586 55.9153 74.2394C56.2955 74.9133 55.5264 76.6119 54.7323 76.8675C53.7383 77.1877 53.2665 76.469 52.9281 75.7442C52.2608 74.3164 52.494 72.7669 52.6307 71.2973C52.9405 67.9742 53.9404 64.8329 55.6556 61.9467C56.419 60.6619 57.295 59.481 58.9212 59.2474C61.6917 58.8502 62.8279 59.1413 63.5478 61.9248C64.4967 65.5925 62.4849 70.681 59.3577 72.8808C59.0115 73.1248 58.6615 73.3306 58.2112 73.1563C57.6976 72.9578 57.7722 72.4861 57.7548 72.1C57.6902 70.6628 58.3338 69.4376 58.8785 68.1867C58.9733 68.2003 59.0678 68.214 59.1626 68.2277Z" fill="black"/>
<path fill-rule="evenodd" clip-rule="evenodd" d="M39.9965 0.010149C40.8833 -0.0664787 41.5319 0.281452 41.5713 1.12808C41.64 2.62376 41.9731 4.01796 41.5373 5.6553C40.8042 8.41015 39.678 10.8887 38.1293 13.1929C37.4454 14.2098 37.7242 15.3401 37.2926 16.3566C36.9331 17.2032 36.5097 17.9757 35.8441 18.6086C35.4129 19.0187 34.954 19.326 34.3393 18.9727C33.7623 18.6413 33.5213 18.2768 33.4852 17.4787C33.2599 12.4851 35.1503 8.03323 36.8341 3.51843C37.2068 2.52021 37.8016 1.66074 38.4217 0.80583C38.838 0.232576 39.3412 -0.0590229 39.9965 0.010149Z" fill="black"/>
</svg>
