<svg width="92" height="114" viewBox="0 0 92 114" fill="none" xmlns="http://www.w3.org/2000/svg">
<path fill-rule="evenodd" clip-rule="evenodd" d="M14.0018 22.297C17.7499 14.7958 22.3443 7.84206 27.1999 1.07428C27.7548 1.2169 27.2673 1.56251 27.4652 1.78069C27.7797 1.9259 28.1297 1.168 28.5342 1.84218C28.9061 2.46155 28.6857 2.92718 28.4238 3.40763C27.0455 5.93656 25.0548 8.07246 23.8535 10.7396C23.4423 11.6516 23.2626 12.7684 22.2487 13.4789C21.6246 13.916 21.7716 15.0214 21.2201 15.7493C20.8748 16.2053 20.6829 16.8432 20.2988 17.3577C18.7682 19.4062 17.8862 21.7232 17.6347 24.2699C17.5895 24.7285 17.3983 25.1438 16.9731 25.1579C15.8136 25.1968 14.6619 25.6772 13.5255 24.6626C12.7005 23.9258 12.6238 23.2587 12.8572 22.3704C13.4199 20.2304 14.536 18.3419 15.6314 16.4549C16.9127 14.2479 18.3677 12.145 19.725 9.98685C21.5505 7.08415 23.5942 4.34296 25.5326 1.5251C25.7171 1.25727 25.8938 0.70348 26.2983 0.947223C26.6028 1.13059 26.282 1.56918 26.1083 1.83589C25.0125 3.51764 23.8394 5.14235 22.6377 6.75299C21.486 8.29658 20.5207 9.98759 19.559 11.6627C18.0051 14.3705 16.293 16.9876 14.8868 19.7799C14.486 20.576 14.0893 21.3824 14.0018 22.297Z" fill="black"/>
<path fill-rule="evenodd" clip-rule="evenodd" d="M8.0782 54.6692C7.37401 55.2352 6.86467 54.3543 6.64204 54.1754C6.03972 53.6916 5.09549 54.1906 4.86027 53.6179C4.50428 52.7507 3.73638 52.0169 4.05495 50.8552C4.67061 48.6082 5.60372 46.493 6.47127 44.3479C7.10026 42.7928 7.69962 41.2225 8.61829 39.8008C9.02799 39.167 9.4988 38.608 10.1941 38.2895C10.9072 37.9624 11.5332 37.939 12.22 38.5269C12.7282 38.9618 13.3835 39.2474 13.854 39.7586C14.3018 40.2446 14.6574 40.7532 14.1292 41.4155C13.7584 41.88 13.8254 42.489 13.6387 43.0187C12.8882 45.1472 12.6026 47.4395 11.3987 49.4076C10.506 50.8674 9.84627 52.4384 9.15801 53.9972C8.96094 54.4436 8.77017 54.9829 8.0782 54.6692Z" fill="black"/>
<path fill-rule="evenodd" clip-rule="evenodd" d="M52.4747 38.7283C52.3091 39.1017 52.2025 39.3417 52.0995 39.5736C52.2217 39.7333 52.3347 39.6381 52.4562 39.604C52.7055 39.5336 52.7911 39.0561 53.093 39.2469C53.4582 39.4777 52.9885 39.754 53.0167 40.0274C53.4164 40.1204 53.5227 39.6266 53.8486 39.6129C54.3539 40.39 54.0887 41.0157 53.6182 41.7128C52.3399 43.6072 51.2319 45.5983 50.4859 47.7772C50.2043 48.5999 49.1505 49.0018 49.1301 49.9568C49.1042 51.1681 48.5389 52.2197 47.9036 53.0858C46.8064 54.5816 46.5719 56.3415 45.9188 57.9673C45.7351 58.4248 45.987 58.9883 45.5351 59.3631C45.3891 59.4843 45.1598 59.7602 45.0646 59.5276C44.7379 58.7327 44.1011 59.1157 43.574 58.9838C42.5957 58.739 42.4031 57.7795 42.3075 56.9357C42.1571 55.6059 42.5409 54.3197 43.0806 53.1343C45.1461 48.5954 47.5484 44.241 50.5203 40.2244C50.973 39.6125 51.379 38.8446 52.4747 38.7283Z" fill="black"/>
<path fill-rule="evenodd" clip-rule="evenodd" d="M38.788 20.7056C38.5613 21.412 38.3423 22.1514 38.0875 22.8786C36.4735 27.4882 34.3798 31.8819 32.1121 36.1996C31.2427 37.8547 30.2406 39.4431 29.5828 41.2094C29.3946 41.7154 29.0564 42.1147 28.4529 41.5765C28.3107 41.4494 28.0996 41.392 27.9114 41.3253C26.6597 40.8823 26.1707 39.9228 26.5634 38.6208C26.9657 37.285 27.7099 36.1152 28.4311 34.9424C31.4827 29.982 34.3532 24.9282 36.5443 19.5154C36.8221 18.8294 36.9025 18.8301 37.3896 19.3524C37.4426 19.4091 37.55 19.4502 37.627 19.4432C38.5357 19.3621 38.6183 20.0281 38.788 20.7056Z" fill="black"/>
<path fill-rule="evenodd" clip-rule="evenodd" d="M8.18926 72.478C7.35727 74.5254 5.99705 76.0923 5.20433 77.9463C4.40308 79.8203 3.43293 81.6269 2.92988 83.6273C3.65926 82.0237 4.38456 80.4178 5.11876 78.8161C5.96186 76.9784 7.03092 75.2711 8.08184 73.5478C8.60933 72.6832 9.20165 72.7273 9.79545 73.2033C10.3752 73.6686 10.4956 74.4521 9.94955 74.9981C8.83714 76.1105 8.21149 77.5318 7.80512 78.928C7.0976 81.3595 5.85369 83.6132 5.47882 86.1525C5.39251 86.7378 4.9691 87.2367 4.88205 87.8887C4.78426 88.6222 4.7461 89.2504 5.10987 89.9338C5.32064 90.331 5.84073 90.8533 5.3788 91.2963C5.00096 91.6589 4.44754 91.9249 3.8178 91.5945C3.57739 91.4685 3.22697 91.5512 2.92655 91.5408C1.16996 91.4815 0.133126 90.3369 0.395021 88.5651C0.74619 86.1892 1.63856 83.9669 2.58093 81.7725C3.81558 78.8969 5.15802 76.0768 6.98536 73.5156C7.25503 73.1378 7.481 72.7203 8.18926 72.478Z" fill="black"/>
<path fill-rule="evenodd" clip-rule="evenodd" d="M56.0839 94.8847C53.705 94.8799 52.9882 93.8383 53.7932 91.8657C54.4225 90.3232 55.4931 89.0519 56.5266 87.7784C58.9392 84.806 61.4504 81.9189 64.1238 79.1722C64.7776 78.5002 65.5714 78.2598 66.3863 78.0105C66.6708 77.9238 67.305 77.7527 67.2809 78.0005C67.2306 78.5072 67.7392 78.9677 67.2813 79.51C65.2365 81.9315 63.4118 84.5238 61.5211 87.0649C60.6876 88.1855 59.7653 89.242 58.9625 90.3833C58.4199 91.1552 57.865 91.9894 58.4154 93.0289C58.4814 93.153 58.4473 93.4786 58.3887 93.4978C57.4493 93.8112 56.8815 94.8118 56.0839 94.8847Z" fill="black"/>
<path fill-rule="evenodd" clip-rule="evenodd" d="M80.4017 41.0174C81.6234 39.6449 82.3835 37.9758 83.5881 36.6118C83.943 36.2103 84.3682 35.8617 84.6716 35.4261C85.1725 34.7063 85.6877 35.2549 86.0189 35.4816C86.3404 35.7013 86.4912 36.2118 86.1463 36.6948C84.7379 38.6673 83.6052 40.8266 82.6539 43.024C81.976 44.5905 80.8506 45.9626 80.6158 47.7855C80.5265 48.4756 80.055 49.272 79.7934 50.0448C79.4437 51.0779 78.7255 50.2226 78.1713 50.1848C78.0839 50.1789 78.0065 49.9218 77.9265 49.9233C77.5853 49.9281 77.3845 50.7967 76.9848 50.1941C76.4425 49.3761 75.8635 48.6045 76.2428 47.3954C76.8455 45.4762 77.7712 43.7448 78.7844 42.0457C80.1579 39.742 81.4248 37.3571 83.3796 35.4561C83.5237 35.3161 83.6559 35.1623 83.81 35.0342C83.9689 34.9019 84.1827 34.7889 84.3531 34.9516C84.5698 35.1586 84.4549 35.409 84.2653 35.5646C82.6076 36.9219 81.7819 38.8796 80.6202 40.594C80.5321 40.7244 80.4739 40.8759 80.4017 41.0174Z" fill="black"/>
<path fill-rule="evenodd" clip-rule="evenodd" d="M39.5113 75.112C40.0225 74.6297 40.5996 74.1993 41.0275 73.6522C41.5268 73.0139 42.0828 72.8739 42.7863 73.1521C43.2045 73.318 43.1156 73.7566 43.0752 74.0363C42.9711 74.7561 42.5451 75.3106 41.8494 75.5669C41.6831 75.6281 41.4327 75.5021 41.4331 75.8029C41.4368 77.2724 40.148 78.0547 39.5943 79.232C39.4242 79.5928 39.1075 79.9354 38.8845 80.3055C38.2333 81.386 37.7006 82.5599 36.3204 82.9737C35.9988 83.07 35.4891 83.3578 35.6629 83.8464C36.193 85.3367 35.1491 86.332 34.5568 87.437C33.5833 89.2525 32.3483 90.9202 31.4455 92.7801C31.3436 92.9898 31.2807 93.288 30.988 93.2154C30.6224 93.1242 31.1069 92.7998 30.8532 92.6086C30.3976 92.8512 29.9975 93.5065 29.3622 92.7334C29.1355 92.4575 28.8025 92.9238 28.6395 93.2169C28.5154 93.4395 28.3791 93.6492 28.0994 93.4854C27.7612 93.2872 28.0527 93.0802 28.142 92.8983C29.7689 89.5826 31.7785 86.4991 33.8641 83.4616C35.7007 80.7863 37.5369 78.1107 39.3731 75.4362C39.4187 75.3287 39.465 75.2206 39.5113 75.112Z" fill="black"/>
<path fill-rule="evenodd" clip-rule="evenodd" d="M57.2943 63.3427C58.4204 61.6002 59.555 59.8599 60.8082 58.1989C59.3787 59.2709 57.6554 61.7587 57.2943 63.3427ZM59.4976 65.9879C59.1472 66.0902 60.0407 64.8722 59.0857 65.6201C59.0602 65.6401 59.0098 65.6708 58.9983 65.662C58.3689 65.1734 57.8148 65.2008 57.2387 65.7979C57.0876 65.9546 55.9148 64.6403 55.8896 64.2521C55.8518 63.6661 56 63.1112 56.2578 62.5981C57.7129 59.7006 59.7599 57.2932 62.3462 55.3451C63.6131 54.3905 64.9422 54.4946 66.2687 55.2054C66.9811 55.5873 66.9777 56.0463 66.3854 56.6179C65.762 57.2191 65.1689 57.8566 64.6107 58.5189C63.9665 59.2831 63.4272 60.1222 62.7182 60.8493C61.7869 61.8039 61.4661 63.1578 60.789 64.2914C60.4144 64.917 60.0848 65.5519 59.4976 65.9879Z" fill="black"/>
<path fill-rule="evenodd" clip-rule="evenodd" d="M89.0124 67.7295C88.8642 68.2351 88.775 68.5393 88.639 69.003C88.865 68.8282 89.0028 68.7752 89.0443 68.68C89.3814 67.9095 90.0007 68.1088 90.4886 68.3581C91.0109 68.6248 91.1465 69.2271 90.9375 69.7465C90.5967 70.594 90.2026 71.4334 89.7218 72.2087C89.0583 73.2785 88.3078 74.3124 87.8559 75.4808C87.3836 76.701 86.695 77.8882 86.9895 79.3229C87.1288 80 86.5631 80.3979 85.9445 80.1208C85.6085 79.9696 85.3062 79.9867 84.974 80.0034C82.8684 80.1086 81.7812 78.6153 82.5991 76.605C83.7523 73.7716 85.6133 71.3764 87.5514 69.0467C87.9219 68.6015 88.1771 68.0092 89.0124 67.7295Z" fill="black"/>
<path fill-rule="evenodd" clip-rule="evenodd" d="M12.258 111.98C12.2454 112.737 12.8837 113.104 12.9719 113.708C12.0391 113.835 11.4512 113.329 11.2471 112.288C11.0256 111.157 11.3794 110.115 11.9298 109.213C13.1011 107.294 14.0787 105.264 15.7149 103.607C16.355 102.959 16.7977 101.91 17.4204 101.125C19.1951 98.8887 21.0476 96.7136 22.8776 94.521C23.245 94.0805 23.681 93.7105 24.1841 93.4234C24.4415 93.2763 24.6953 93.243 24.9349 93.4356C25.1924 93.6427 25.1639 93.9072 25.0201 94.1624C24.8064 94.5421 24.6145 94.9429 24.3474 95.2826C21.8748 98.4242 19.3351 101.515 16.9321 104.709C15.9961 105.953 15.2652 107.383 14.7614 108.876C14.5288 109.566 14.7781 110.324 14.857 111.049C14.8781 111.247 15.1541 111.516 14.8044 111.664C14.1328 111.949 13.5701 112.231 14.1609 113.106C14.2954 113.305 13.9898 113.41 13.7772 113.415C13.3971 113.424 12.9596 113.418 12.9148 112.946C12.8741 112.512 12.6285 112.292 12.258 111.98Z" fill="black"/>
<path fill-rule="evenodd" clip-rule="evenodd" d="M28.3587 60.3869C28.1409 60.2324 28.0187 60.2028 27.9235 60.4343C27.5768 61.2778 27.2878 62.1568 26.8352 62.9403C26.5614 63.4137 26.6203 64.3901 25.572 64.1053C25.4053 64.0601 25.4394 64.2701 25.5149 64.389C25.6916 64.6668 25.582 64.8706 25.3905 65.1043C25.0637 65.5025 24.9737 65.9445 25.0586 66.4905C25.216 67.4988 24.5144 67.9903 23.592 67.5766C23.4813 67.5266 23.2846 67.3584 23.2746 67.428C23.039 69.0713 22.1485 66.8924 21.7851 67.6884C21.5124 67.4617 21.3843 67.1732 21.3531 66.8168C21.282 66 21.6161 65.3092 21.9951 64.6309C23.4309 62.0612 25.4875 60.0101 27.5968 58.0139C28.1046 57.5327 28.8699 57.5068 29.5282 57.313C29.9145 57.1993 30.1424 57.5194 30.2887 57.8253C30.4891 58.2447 30.2683 58.2884 29.9253 58.1765C29.8797 58.9289 29.3878 59.4497 28.984 60.0209C28.8062 60.2724 28.691 60.5765 28.3587 60.3869Z" fill="black"/>
<path fill-rule="evenodd" clip-rule="evenodd" d="M58.3845 19.081C58.3015 19.0195 58.2189 18.958 58.1363 18.8965C57.6599 19.651 57.1791 20.4026 56.7142 21.1643C56.6601 21.2532 56.5542 21.4136 56.715 21.5106C56.8268 21.578 57.0187 21.5973 57.0569 21.4558C57.2988 20.5538 58.1452 19.98 58.3845 19.081ZM54.8742 28.2403C54.5798 28.6659 54.7898 29.3934 53.8619 29.4519C53.191 29.4945 53.3121 29.1704 53.3118 28.8252C52.735 28.877 52.9658 29.5623 52.455 29.6983C52.2446 28.7711 52.5865 27.8835 52.545 26.9926C52.5513 26.9663 52.5554 26.9374 52.5579 26.9063C53.2744 26.2914 53.4396 25.3713 53.8367 24.5808C54.0004 24.254 54.0578 23.8644 54.259 23.5684C55.8777 21.1869 57.195 18.6153 58.9386 16.3079C60.3051 14.4995 61.5153 12.574 62.9748 10.8318C63.3104 10.4314 63.6072 9.99245 64.3273 9.57275C63.7716 10.5788 63.3486 11.3442 62.9259 12.1095C62.9363 12.0791 62.9456 12.048 62.9537 12.0157C61.8398 12.8977 61.3861 14.2594 60.4322 15.2759C60.7582 15.5519 60.856 15.2641 61.0127 15.2315C61.2809 15.1763 61.4464 15.3444 61.5502 15.5752C61.6013 15.6882 61.7031 15.8549 61.5227 15.9012C60.7226 16.1068 60.9145 16.7706 60.8912 17.297C60.8652 17.8789 60.5489 18.1986 60.094 18.4587C59.3931 18.8591 58.9764 19.427 59.0516 20.2749C58.9286 20.4568 58.806 20.639 58.683 20.8209C57.917 21.1965 56.8212 23.0261 56.899 23.7992C56.4619 23.8218 56.2893 24.65 55.6944 24.1959C55.5181 23.7062 55.418 23.4743 54.9602 24.084C54.3816 24.8538 54.4746 25.9021 53.7767 26.59C53.6729 26.6919 53.68 26.8422 53.8222 26.9293C54.0071 27.0427 54.1786 26.9597 54.2067 26.7782C54.3297 25.9936 54.9561 25.442 55.1458 24.6956C55.2262 24.3807 55.311 24.1051 55.7225 24.1674C55.9726 25.6213 54.8531 26.6144 54.4694 27.8557C54.4186 28.0202 53.8019 27.5772 54.0256 28.1306C54.1345 28.4007 54.5453 28.5347 54.8742 28.2403Z" fill="black"/>
<path fill-rule="evenodd" clip-rule="evenodd" d="M77.7867 95.3966C77.5814 95.9618 77.7404 96.4723 77.9211 96.9624C78.0163 97.2202 78.0882 97.4158 77.7793 97.5228C77.4974 97.6206 77.324 97.4224 77.224 97.2072C76.9688 96.659 77.0321 96.0478 77.1836 95.5251C77.7611 93.53 78.8439 91.7982 80.1793 90.219C80.5756 89.7508 81.0453 89.3267 81.3558 88.807C81.9199 87.8624 82.8801 87.5931 83.7954 87.2945C84.2229 87.1548 84.3048 87.7283 84.3926 88.0368C84.4426 88.2135 84.3126 88.5562 84.1551 88.6592C82.6338 89.6541 82.3889 91.5081 81.3569 92.8413C81.0168 93.2807 81.1728 94.1715 80.7334 94.7546C80.3864 95.2154 80.1993 95.7914 79.554 96.0111C79.1817 96.1374 79.4636 96.6168 79.2954 96.9016C79.2091 97.0479 79.1562 97.2239 78.9724 97.2476C78.7894 97.2713 78.5586 97.115 78.5916 96.9979C78.8135 96.2115 77.8848 96.0111 77.7867 95.3966Z" fill="black"/>
<path fill-rule="evenodd" clip-rule="evenodd" d="M39.5109 75.1121C39.4646 75.2206 39.4183 75.3288 39.3727 75.4362C38.0366 76.6138 36.9586 78.0336 35.9125 79.4468C34.4734 81.3909 33.1721 83.4442 31.9189 85.5156C30.8584 87.2689 29.5055 88.8443 28.7617 90.7972C28.4598 91.5899 27.959 92.3134 27.0848 92.8546C26.8788 91.6611 27.6389 90.8965 28.0772 90.0552C29.2314 87.8382 30.6894 85.8068 32.1234 83.7679C34.7105 80.0899 37.1409 76.2871 40.3651 73.0995C40.5496 72.9173 40.697 72.6665 41.1408 72.8021C40.8511 73.7674 39.925 74.2741 39.5109 75.1121Z" fill="black"/>
<path fill-rule="evenodd" clip-rule="evenodd" d="M78.6666 61.0294C78.2699 61.3202 78.7374 62.1055 78.1299 61.9777C77.612 61.8685 77.7991 61.2369 77.9291 60.8361C78.7363 58.3542 80.3273 56.5176 82.631 55.3148C82.9799 55.1325 83.4863 54.8543 83.809 55.3704C84.0957 55.8278 83.6523 56.106 83.3993 56.3924C82.3387 57.5941 81.3326 58.8209 81.0678 60.4771C81.0015 60.8931 80.664 61.0431 80.3203 61.1839C80.2002 61.2332 80.0795 61.3136 79.9943 61.4102C79.3212 62.1755 78.8133 62.2563 78.6666 61.0294Z" fill="black"/>
<path fill-rule="evenodd" clip-rule="evenodd" d="M57.8961 16.4946C57.785 17.7308 56.7281 18.4131 56.1536 19.3755C55.728 20.0882 55.3809 20.8968 54.7008 21.4629C54.5315 21.6036 54.4637 21.914 54.1844 21.757C53.9621 21.6318 53.9169 21.3784 54.067 21.1402C54.9705 19.7077 55.8491 18.2579 56.9286 16.9462C57.1834 16.6365 57.5853 16.645 57.925 16.5191L57.8961 16.4946Z" fill="black"/>
<path fill-rule="evenodd" clip-rule="evenodd" d="M57.925 16.5192C57.7987 16.2454 57.652 15.991 57.8817 15.6787C59.183 13.9077 60.4573 12.1159 61.9657 10.5086C62.0824 10.3841 62.1468 10.0893 62.4106 10.2737C62.5776 10.3908 62.5361 10.5719 62.4217 10.7168C60.947 12.5811 59.516 14.4774 58.1765 16.4421C58.1387 16.4973 57.9921 16.4788 57.8961 16.4947L57.925 16.5192Z" fill="black"/>
<path fill-rule="evenodd" clip-rule="evenodd" d="M52.5583 26.9061C52.5561 26.9372 52.5517 26.9665 52.5457 26.9928C52.3676 27.4436 51.9786 27.8084 52.0119 28.3471C52.0238 28.5389 52.0494 28.8116 51.7571 28.7864C51.4959 28.7638 51.5311 28.5212 51.5541 28.3145C51.7589 26.4767 52.3835 24.7583 53.0795 23.0658C53.1992 22.7754 53.5492 22.4635 53.8689 22.6124C54.2475 22.7887 53.9615 23.1629 53.8274 23.3822C53.1603 24.4731 52.8695 25.6914 52.5583 26.9061Z" fill="black"/>
<path fill-rule="evenodd" clip-rule="evenodd" d="M62.9549 12.0159C62.9467 12.0477 62.9375 12.0788 62.9267 12.1092C63.3527 11.6762 64.094 11.548 64.1658 10.7494C64.1777 10.6175 64.5133 10.1352 64.8526 10.4327C65.1752 10.7153 64.8307 11.0139 64.644 11.1906C63.8002 11.9896 63.1305 12.8923 62.7471 14.1044C62.4229 13.7258 61.9388 13.4787 62.5833 13.019C62.9297 12.7719 62.7911 12.3359 62.9549 12.0159Z" fill="black"/>
<path fill-rule="evenodd" clip-rule="evenodd" d="M58.6836 20.8209C58.8065 20.639 58.9295 20.4567 59.0521 20.2748C59.1999 20.1585 59.3477 20.0426 59.4952 19.9263C59.5474 19.9622 59.5989 19.9981 59.6508 20.0341C59.3111 20.6405 58.971 21.2465 58.6313 21.8529C58.5587 21.8292 58.4861 21.8051 58.4135 21.781C58.5035 21.4613 58.5936 21.1409 58.6836 20.8209Z" fill="black"/>
<path fill-rule="evenodd" clip-rule="evenodd" d="M55.2687 27.7169C55.0709 27.0208 55.578 26.5589 55.844 26.0221C56.1048 25.4958 56.4085 24.9905 56.6937 24.4756C56.7945 24.7375 56.7708 24.9694 56.6248 25.2257C56.157 26.0473 55.7184 26.8852 55.2687 27.7169Z" fill="black"/>
</svg>
