<svg width="30" height="65" viewBox="0 0 30 65" fill="none" xmlns="http://www.w3.org/2000/svg">
<path fill-rule="evenodd" clip-rule="evenodd" d="M12.0609 3.98015C11.9333 4.10814 11.8269 4.21417 11.6922 4.34879C10.9985 4.27133 10.2819 4.16033 9.56118 4.11974C8.84834 4.07997 8.13095 4.11104 7.41562 4.11104C6.85107 4.11104 6.23349 3.96731 5.73562 4.14956C5.18225 4.35252 4.57793 4.1421 4.14219 4.37654C3.63604 4.64909 3.02633 4.33885 2.61379 4.78909C1.75846 4.705 1.04852 5.23269 0.258638 5.35696C-0.629824 5.49654 -1.42675 5.84281 -2.24231 6.15346C-3.18462 6.51258 -4.15757 6.78512 -5.06095 7.2598C-5.70462 7.59778 -6.39882 7.855 -7.06651 8.1408C-8.25444 8.64944 -9.27627 9.38589 -10.3147 10.107C-10.8834 10.5013 -11.3771 11.0025 -11.906 11.4536C-12.406 11.881 -12.9647 12.2555 -13.3992 12.7409C-14.9355 14.459 -16.5658 16.1117 -17.5624 18.2403C-18.2475 18.8549 -18.5233 19.7364 -18.8675 20.5242C-19.2117 21.312 -19.7233 22.0604 -19.8131 22.9551C-20.567 24.1965 -20.8656 25.6164 -21.2782 26.9749C-21.6033 28.0448 -22.085 29.1031 -22.0722 30.2645C-22.4818 30.6029 -22.2482 31.1364 -22.4711 31.5713C-22.6972 32.0129 -22.8401 32.5778 -22.761 33.1474C-22.686 33.6879 -23.0737 34.1729 -22.9925 34.7491C-22.9234 35.2432 -23 35.7365 -23.1686 36.2452C-23.3322 36.7372 -23.1487 37.32 -23.4072 37.8448C-23.4697 37.9716 -23.239 38.2197 -23.215 38.4206C-23.1984 38.5597 -23.3951 38.7789 -23.343 38.8505C-23.0377 39.2684 -23.2953 39.7253 -23.2009 40.0724C-23.3504 40.3524 -23.4668 40.5694 -23.6354 40.8846C-23.4999 40.9567 -23.3127 41.057 -23.1441 41.1468C-23.1441 42.6367 -23.1458 44.0189 -23.1375 45.4007C-23.1371 45.4541 -23.0377 45.5071 -22.983 45.5618C-23.0559 45.6417 -23.1288 45.7221 -23.2017 45.8025C-23.0157 46.5232 -22.7333 47.217 -22.7362 47.987C-22.7378 48.4074 -22.6268 48.8352 -22.5183 49.2474C-22.2934 50.0998 -22.1124 50.9684 -21.9533 51.8283C-21.7736 52.7983 -21.262 53.5874 -20.8611 54.4319C-20.4659 55.2657 -19.9212 55.9988 -19.0692 56.5091C-17.8937 57.2129 -16.7435 57.9651 -15.5021 58.542C-14.909 58.8175 -14.2579 59.0217 -13.6656 59.2835C-13.0451 59.5573 -12.384 59.6761 -11.7635 59.8588C-11.2114 60.0207 -10.5636 60.08 -9.95308 60.1346C-9.45065 60.1798 -8.96024 60.1442 -8.45574 60.3413C-8.00467 60.5174 -7.42811 60.2117 -6.97621 60.5907C-6.95426 60.6093 -6.9029 60.5932 -6.86521 60.5932C-5.01041 60.5803 -3.15728 61.0782 -1.31698 60.7854C-0.0727215 60.5878 1.2374 60.5733 2.39758 59.9586C4.19438 59.7329 5.74887 58.7483 7.48521 58.3337C7.96071 57.8831 8.63337 57.8325 9.1739 57.497C9.70284 57.1686 10.3159 56.9793 10.8651 56.6798C12.8064 55.6215 14.7573 54.5802 16.6113 53.3691C16.9725 53.133 17.2289 52.7909 17.6377 52.5842C18.1447 52.3278 18.5734 51.8929 18.9884 51.4865C19.3761 51.1063 19.7866 50.7555 20.0562 50.2415C20.3213 49.7353 20.8275 49.3874 21.1828 48.9086C22.0117 47.7919 22.8894 46.6992 23.4382 45.4272C23.7795 44.6369 24.1063 43.8197 24.397 42.9983C24.6775 42.2055 24.7748 41.3693 25.1082 40.5852C25.3667 39.9788 25.3033 39.2336 25.3708 38.549C25.4533 37.7148 25.5535 36.881 25.5904 36.0447C25.628 35.1803 25.65 34.3092 25.5841 33.4485C25.5187 32.5965 25.3973 31.7482 25.2027 30.9057C25.0917 30.4273 24.9662 29.9261 24.938 29.4353C24.8945 28.6665 24.5789 28.003 24.2927 27.3241C23.7244 25.9751 22.8993 24.7996 22.0204 23.622C21.0499 22.3218 19.6561 21.5274 18.621 20.3274C18.1886 19.8267 17.5689 19.4622 16.9816 19.1291C16.5347 18.8752 15.9937 18.8235 15.5108 18.5923C14.9185 18.309 14.2491 18.1881 13.6141 17.993C13.5487 17.9731 13.4936 17.9027 13.4298 17.8965C12.6333 17.8153 11.8364 17.7345 11.0386 17.6707C10.7392 17.6467 10.431 17.6322 10.1369 17.6774C9.89006 17.7155 9.67178 17.3091 9.42657 17.6488C9.02976 17.3435 8.66485 17.7971 8.24527 17.689C7.87663 17.5941 7.48603 17.7188 7.08965 17.858C6.63651 18.017 6.08769 17.8414 5.61012 18.1115C5.31438 18.2788 4.97846 18.3749 4.64089 18.5112C4.54728 18.4175 4.41432 18.2842 4.27639 18.1467C4.23 18.1815 4.13971 18.2196 4.14219 18.2515C4.16745 18.6151 4.0519 18.8504 3.69734 19.0343C3.07272 19.3586 2.48621 19.7562 1.84793 20.1448C1.73941 20.0826 1.58864 19.9969 1.3132 19.8395C1.26929 20.0139 1.21917 20.2123 1.18189 20.361C1.12846 20.3349 1.2726 20.4049 1.45195 20.4915C0.903963 21.0295 0.360947 21.5456 -0.162189 22.0807C-1.40024 23.3474 -2.43491 24.7664 -3.2774 26.3238C-3.70941 27.1228 -4.17331 27.909 -4.54485 28.7357C-5.00089 29.7497 -5.46976 30.7587 -5.82349 31.8211C-6.0774 32.5832 -6.35574 33.3338 -6.5939 34.1029C-6.74177 34.5805 -6.65562 35.068 -6.88757 35.5609C-7.16467 36.1499 -6.99982 36.9307 -7.18331 37.5843C-7.39746 38.3477 -7.36266 39.1036 -7.39704 39.8686C-7.4074 40.1039 -7.53746 40.3338 -7.61574 40.5757C-7.54615 40.6539 -7.47284 40.7359 -7.3987 40.8192C-7.4426 40.8689 -7.48982 40.9219 -7.52752 40.965C-7.47988 41.2715 -7.39414 41.5689 -7.39414 41.8667C-7.39456 42.7386 -7.16633 43.562 -6.93811 44.3909C-6.57858 45.6939 -5.67686 46.548 -4.49473 47.0128C-3.1084 47.5574 -1.64254 47.8138 -0.141893 47.9981C1.08166 48.1481 2.28864 48.071 3.48527 48.1825C4.04692 47.7836 4.71338 47.6411 5.2887 47.2944C5.48172 47.178 5.73106 47.1126 5.93071 46.9448C6.76408 46.2415 7.67574 45.6418 8.48426 44.8954C8.84586 44.5615 9.26834 44.2521 9.63698 43.9029C10.7967 42.8057 11.5208 41.4372 12.0393 39.9498C12.2121 39.4552 12.2469 38.8836 12.5202 38.4607C12.8371 37.9703 12.5082 37.3532 12.9469 36.9369C13.0218 36.0273 13.1821 35.1136 13.1436 34.2081C13.1167 33.5674 12.8856 32.9312 12.9427 32.2672C12.9556 32.121 12.176 30.3345 12.0029 30.178C11.6268 29.8375 11.2188 29.5326 10.8245 29.2129C10.4335 29.4249 10.1208 28.8968 9.64734 29.1545C9.25675 29.367 8.66444 29.4055 8.22828 29.2837C7.73538 29.1462 8.0713 29.5405 7.90562 29.6192C6.56692 30.255 5.71243 31.51 4.5071 32.3227C4.44828 32.362 4.40894 32.4308 4.46941 32.362C4.33024 32.8458 4.32444 33.26 4.11816 33.5081C3.51467 34.2351 3.38006 35.172 2.9174 35.9561C2.8155 36.1292 2.81053 36.3657 2.78237 36.5753C2.72107 37.0363 2.92651 37.5317 2.56491 37.9591C2.49036 38.047 2.52515 38.2582 2.55953 38.4003C2.65728 38.802 2.78112 39.1972 2.91533 39.6673C4.38905 38.6645 4.93 36.999 5.99533 35.7622H6.81876C6.6568 36.1193 6.50977 36.4432 6.26746 36.9762C6.61248 36.8288 6.77982 36.7977 6.89165 36.7016C7.14722 36.4809 7.37586 36.2282 7.62852 35.9755C7.96361 36.1996 8.14337 36.5761 8.45651 36.8383C8.74894 37.0823 8.84379 37.5632 9.11799 38.1315C9.12876 38.9739 8.4184 39.8135 8.20219 40.8072C7.79462 41.076 7.33485 41.2351 7.26444 41.8779C7.2226 42.259 6.84278 42.6028 6.67089 42.8741C6.1871 43.0894 5.79568 42.8956 5.39059 43.1379C4.82314 43.4775 4.21633 42.872 3.59379 42.9706C2.71527 42.389 1.66941 42.1654 0.772663 41.5822C0.0983429 41.1435 -0.322071 40.5446 -0.775208 39.9552C-1.08917 39.5468 -1.2387 39.0162 -1.51663 38.5751C-1.79166 38.1393 -1.79166 37.6224 -1.91509 37.1643C-2.10396 36.4618 -2.08491 35.6467 -1.9358 34.9243C-1.72414 33.9037 -1.53817 32.8632 -1.07012 31.8998C-0.486094 30.6974 0.253668 29.6113 1.17651 28.6549C2.04053 27.7594 2.90994 26.8784 4.00882 26.2356C4.72083 25.8193 5.51609 25.688 6.24426 25.3525C6.58515 25.1951 6.89994 25.5919 7.3129 25.3782C7.60988 25.2249 8.05349 25.319 8.42627 25.3562C8.81272 25.3956 9.33172 25.3695 9.54752 25.6006C10.0296 26.1171 10.8701 25.8226 11.2395 26.4655C11.9594 26.4667 12.403 26.9994 12.8818 27.3949C14.105 28.406 15.382 29.3902 15.9622 30.9629C16.0467 31.1919 16.1225 31.4235 16.2017 31.6513C16.3056 31.6745 16.4083 31.6973 16.5007 31.718C16.668 32.3442 16.8304 32.9535 16.9973 33.5781C16.9692 33.6146 16.9244 33.6713 16.8428 33.7757C16.9799 33.9932 17.132 34.2346 17.3266 34.5436C17.0247 34.5913 16.8176 34.6244 16.591 34.6604C16.584 34.7735 16.5778 34.8754 16.5691 35.0208H17.0736C17.1469 35.0883 17.1742 35.1136 17.2015 35.1384C16.8884 35.4246 17.395 35.6856 17.2355 35.9494C16.8619 36.5674 17.0914 37.2459 17.0052 37.8904C16.9398 38.3783 16.8358 38.8691 16.6776 39.3343C16.5773 39.6296 16.3458 39.8798 16.1751 40.1474C16.6403 40.8337 15.7692 41.5076 16.065 42.2482C15.9813 42.2656 15.8786 42.2871 15.7638 42.3112C15.5398 42.7995 15.307 43.3065 14.9769 44.0251V44.7815C14.7259 45.3862 14.4392 45.836 13.8598 46.0009V46.4991C13.2389 47.1084 12.6408 47.7989 11.93 48.3411C11.6479 48.5565 11.3717 48.7909 11.0863 49.0075C10.8307 49.2022 10.5304 49.3489 10.3088 49.5746C9.56864 50.3276 8.63089 50.7762 7.71426 51.2302C6.43024 51.8664 4.59574 52.1488 3.18248 51.9948C2.66763 51.9389 2.16852 51.7355 1.60231 51.5835C1.47929 51.6311 1.25728 51.8096 1.09408 51.7661C-0.699821 51.2898 -2.5455 51.0678 -4.28846 50.3127C-5.58698 49.7498 -6.84574 49.1314 -7.96781 48.3171C-8.78586 47.7239 -9.5132 46.9523 -10.0823 46.0576C-10.7438 45.0175 -11.4127 43.9936 -11.7495 42.792C-11.7772 42.6939 -11.8845 42.6139 -11.9002 42.517C-11.9868 41.9852 -12.1098 41.4521 -12.121 40.9174C-12.1512 39.4494 -12.1985 37.9765 -12.1057 36.514C-12.0518 35.6723 -11.8683 34.822 -11.7259 33.9812C-11.5883 33.1714 -11.3982 32.3786 -11.245 31.5755C-11.0722 30.67 -10.7239 29.8296 -10.4265 28.9726C-10.1875 28.2851 -9.9742 27.5573 -9.61757 26.9418C-9.00249 25.8794 -8.59657 24.7221 -7.93136 23.6725C-7.29391 22.6664 -6.69911 21.6226 -6.02686 20.6323C-5.68473 20.1274 -5.34633 19.6051 -4.92136 19.1743C-3.87923 18.1177 -2.91124 16.9716 -1.66698 16.1353C-0.590473 15.4121 0.461597 14.6873 1.72491 14.2329C2.98243 13.781 4.22171 13.4467 5.5455 13.3655C5.78118 13.351 6.01065 13.2235 6.25462 13.1444C6.33207 13.2123 6.41491 13.2839 6.49941 13.3577C6.54787 13.3171 6.60089 13.2732 6.65846 13.2255C6.87509 13.2744 7.11615 13.2852 7.3129 13.3838C7.58586 13.5209 7.72959 13.0665 8.07006 13.3067C8.2987 13.4683 8.71746 13.3523 9.05006 13.3771C9.33255 13.3978 9.65935 13.2545 9.87101 13.5747C10.1949 13.0959 10.4894 13.6662 10.8025 13.6012C11.2159 13.5151 11.575 13.7077 11.9532 13.8207C12.2908 13.9214 12.642 13.9765 12.987 14.0519C13.3325 14.1273 13.7169 14.1302 14.0163 14.2904C15.2801 14.9664 16.7944 15.1756 17.8021 16.301C18.5672 16.2786 19.0414 16.8374 19.5836 17.2064C21.525 18.5286 23.1528 20.2144 24.7408 21.9204C26.2957 23.5909 27.5947 25.478 28.4015 27.624C28.8298 28.7622 29.314 29.8942 29.4739 31.1439C29.5762 31.9454 29.8098 32.7481 29.8765 33.5599C29.9436 34.3825 29.891 35.2151 29.891 36.0435C29.891 36.6457 29.8968 37.2484 29.8898 37.8506C29.8827 38.4624 29.9316 39.0559 29.5456 39.6346C29.3236 39.9672 29.3782 40.4845 29.3082 40.919C29.7411 41.1572 28.9238 41.5805 29.4159 41.7963C29.0953 42.4197 28.7751 43.041 28.4525 43.6685C28.3448 43.5707 28.2719 43.4804 28.1779 43.4287C28.1228 43.3984 28.0337 43.4295 27.9202 43.4345C27.8436 43.7124 28.1675 43.7389 28.2723 44.009V44.9285C28.1717 45.0291 28.0387 45.1625 27.8776 45.3236C27.9306 45.3928 27.9873 45.4661 28.052 45.5498C27.5748 46.0294 27.5151 46.7282 27.1821 47.294C26.8048 47.9348 26.4685 48.6041 25.9408 49.0664C25.5742 48.9686 25.2826 48.8912 24.991 48.8137C24.9728 48.868 24.9546 48.9222 24.9363 48.9765C25.0718 49.0353 25.2072 49.0945 25.4234 49.1886C25.2188 49.329 25.0407 49.4507 24.863 49.5725C24.8899 49.6235 24.9169 49.6744 24.9438 49.7249C25.1215 49.6852 25.2996 49.6458 25.546 49.5903C25.563 49.7258 25.587 49.9167 25.6123 50.1168C25.4495 50.1764 25.3191 50.2241 25.1285 50.2936C25.1757 50.5161 25.2242 50.7472 25.2963 51.0893C25.0353 51.238 24.6837 51.4397 24.2798 51.6704C24.1129 52.047 23.9153 52.4918 23.7182 52.9358C23.7517 52.9561 23.7857 52.9764 23.8196 52.9959C22.9979 53.8177 22.2333 54.7082 21.3402 55.443C20.2683 56.3248 19.1147 57.1176 17.9467 57.8719C16.2907 58.9417 14.595 59.9499 12.9009 60.9593C12.7 61.079 12.4051 61.0405 12.1027 61.0828C11.727 61.7662 10.9028 61.8586 10.2653 62.233C9.67012 62.5826 8.99746 62.8017 8.33101 63.0904C8.25728 62.9421 8.18314 62.793 8.10775 62.6414C7.7358 63.5481 6.78811 63.5613 6.0413 63.9267C5.94148 63.8707 5.79692 63.79 5.59769 63.6777C5.53846 63.8699 5.49953 63.9983 5.46018 64.1259C5.43367 64.1528 5.39764 64.2075 5.38148 64.2017C4.91716 64.0493 4.52491 64.3446 4.12521 64.4552C2.21243 64.9878 0.261539 64.8159 -1.67858 64.9042C-3.1697 64.9717 -4.62769 64.7029 -6.10225 64.6262C-6.66308 64.5973 -7.27361 64.5426 -7.80544 64.3918C-8.35468 64.2361 -8.90059 64.3218 -9.41213 64.186C-10.0604 64.0141 -10.7086 63.8616 -11.3618 63.7121C-12.073 63.5497 -12.7783 63.3348 -13.4696 63.0838C-14.158 62.8336 -14.8692 62.646 -15.5568 62.3949C-16.2427 62.1448 -16.9025 61.8233 -17.5905 61.5798C-19.5986 60.869 -21.2877 59.5867 -23.1085 58.54C-23.9378 57.5881 -24.9293 56.8016 -25.718 55.7922C-26.3397 54.9973 -26.8736 54.1511 -27.3938 53.307C-27.9551 52.3961 -28.3233 51.3619 -28.6232 50.3206C-28.9384 49.2279 -29.2296 48.1315 -29.3099 46.9879C-29.3319 46.6768 -29.4624 46.3745 -29.5249 46.0642C-29.5883 45.7523 -29.3878 45.3854 -29.7316 45.1286C-29.7705 45.0996 -29.749 44.9886 -29.7536 44.9161C-29.8289 43.6296 -29.9346 42.3439 -29.9714 41.0561C-30.0091 39.7394 -29.9851 38.421 -29.971 37.1034C-29.9693 36.982 -29.8434 36.8623 -29.7751 36.7418C-29.8393 36.6697 -29.9126 36.5877 -30 36.4896C-29.9184 36.299 -29.7465 36.0965 -29.7685 35.9175C-29.9051 34.7992 -29.4814 33.7285 -29.5216 32.6205C-29.5315 32.3405 -29.6446 32.0108 -29.3186 31.8041C-29.6699 31.5589 -29.2644 31.3386 -29.2867 31.0933C-29.3124 30.8179 -29.3406 30.5454 -29.1534 30.248C-28.9131 29.8657 -29.2267 29.3015 -28.8502 28.9101C-28.8452 27.7147 -28.2869 26.6548 -28.0313 25.5232C-27.8354 24.6562 -27.5094 23.8643 -27.1586 23.0574C-26.8695 22.3935 -26.7092 21.6711 -26.4503 20.9806C-25.8364 19.3441 -25.0814 17.7759 -24.3085 16.221C-23.794 15.1868 -23.022 14.2855 -22.5025 13.24C-21.8212 12.9165 -21.6862 12.1407 -21.1933 11.6362C-20.6892 11.121 -20.2369 10.5295 -19.7204 10.0072C-19.191 9.47204 -18.6757 8.92074 -18.1195 8.41417C-17.2115 7.58619 -16.176 6.9069 -15.2466 6.11536C-14.3076 5.31554 -13.222 4.78287 -12.2038 4.14376C-11.2433 3.54068 -10.1399 3.124 -9.0497 2.78394C-8.28219 2.54494 -7.56562 2.17506 -6.7687 2.004C-5.77876 1.79193 -4.81864 1.444 -3.83864 1.18015C-3.42775 1.06914 -2.89509 1.15281 -2.60308 0.917547C-2.16609 0.56589 -1.65083 0.924588 -1.25651 0.589499C-0.912308 0.297488 -0.353552 0.733227 -0.0325451 0.272636C-0.0201187 0.254825 0.0403557 0.264766 0.0768051 0.270979C1.0071 0.437902 1.88272 -0.00570764 2.80763 0.0357125C3.70935 0.07589 4.64006 -0.0910331 5.51195 0.0754758C6.91941 0.344292 8.38568 0.359204 9.69663 1.14784C10.6837 1.74181 11.5195 2.39335 11.9615 3.47151C12.0282 3.63388 12.0315 3.82151 12.0609 3.98015Z" fill="#00E1F0"/>
</svg>
