<svg width="138" height="26" viewBox="0 0 138 26" fill="none" xmlns="http://www.w3.org/2000/svg">
<path d="M3.65907 20.3182C2.63036 20.3204 1.68003 19.7689 1.17155 18.8747C0.670393 17.9859 0.700445 16.8932 1.24969 16.0334L6.37233 7.98907C6.90611 7.1089 7.87218 6.58399 8.90109 6.61508C9.92926 6.63972 10.8645 7.21619 11.3485 8.12365C11.826 9.02663 11.7663 10.113 11.1943 10.9606L6.07496 19.0049C5.54733 19.8271 4.63599 20.3225 3.65907 20.3182Z" fill="#F62B54"/>
<path d="M12.4459 20.3178C11.4127 20.3178 10.4619 19.7654 9.96271 18.8776C9.46266 17.9913 9.49272 16.9013 10.0408 16.0439L15.1537 8.01802C15.6798 7.12521 16.6487 6.58798 17.6847 6.61472C18.7265 6.63751 19.6708 7.22032 20.1483 8.13198C20.6226 9.04364 20.5531 10.1365 19.9638 10.982L14.852 19.0078C14.326 19.8265 13.4189 20.3203 12.4459 20.3178Z" fill="#FFCC00"/>
<path d="M21.036 20.3861C22.4925 20.3861 23.6733 19.2301 23.6733 17.8041C23.6733 16.3781 22.4925 15.2222 21.036 15.2222C19.5794 15.2222 18.3987 16.3781 18.3987 17.8041C18.3987 19.2301 19.5794 20.3861 21.036 20.3861Z" fill="#00CA72"/>
<path d="M135.607 15.3707C136.404 15.3707 136.88 15.9373 136.88 16.8652V20.0451H137.962V16.7925C137.962 15.2144 137.219 14.2995 135.821 14.2995C135.274 14.2995 134.405 14.4493 133.888 15.4554C133.643 14.8508 133.085 14.4297 132.437 14.3592C132.236 14.3225 132.032 14.3105 131.829 14.3234C131.384 14.3592 130.592 14.636 130.295 15.2633V14.42H129.212V20.0451H130.295V17.0095C130.295 15.8287 131.068 15.3707 131.842 15.3707C132.567 15.3707 133.043 15.9253 133.043 16.8533V20.0451H134.12V17.0095C134.12 16.0697 134.684 15.3599 135.607 15.3707ZM125.237 19.1053C125.732 19.1161 126.209 18.9186 126.555 18.5604C126.903 18.2023 127.087 17.715 127.069 17.2147C127.069 16.0816 126.235 15.3707 125.237 15.3707C124.237 15.3707 123.405 16.0816 123.405 17.2147C123.385 17.7139 123.57 18.2001 123.915 18.5572C124.26 18.9153 124.735 19.1139 125.228 19.1053H125.237ZM125.237 20.1602C123.654 20.1602 122.334 18.9913 122.334 17.2081C122.334 15.425 123.654 14.293 125.237 14.293C126.819 14.293 128.151 15.425 128.151 17.2081C128.151 18.9913 126.812 20.1656 125.229 20.1656L125.237 20.1602ZM116.761 17.2081L116.75 17.2147C116.75 15.4315 118.105 14.2995 119.699 14.293C120.508 14.2774 121.286 14.6055 121.84 15.196L121.019 15.8949C120.667 15.5493 120.192 15.3586 119.699 15.3653C118.7 15.3653 117.832 16.0762 117.832 17.2081C117.832 17.9733 118.287 18.6625 118.984 18.9555C119.682 19.2485 120.485 19.0857 121.019 18.5452L121.852 19.2442C121.296 19.8408 120.514 20.1737 119.699 20.1602C118.117 20.1602 116.761 18.9913 116.761 17.2081ZM113.295 18.9653C113.293 18.7666 113.37 18.5752 113.508 18.4332C113.647 18.2911 113.837 18.21 114.035 18.2077C114.234 18.21 114.424 18.2911 114.562 18.4332C114.701 18.5752 114.778 18.7666 114.776 18.9653C114.756 19.3606 114.431 19.672 114.035 19.6761C113.64 19.672 113.315 19.3606 113.295 18.9653Z" fill="#333333"/>
<path d="M116.256 7.26952H112.402L109.701 14.2339L107.014 7.26952H103.16L107.845 18.2745L104.931 25.5504H108.757L116.256 7.26952ZM92.818 13.3906C92.818 15.1488 94.3548 16.3058 95.8644 16.3058C97.348 16.3058 98.8056 15.2292 98.8056 13.3896C98.8056 11.55 97.348 10.4723 95.8644 10.4723C94.3548 10.4723 92.818 11.6303 92.818 13.3896V13.3906ZM98.8056 19.5356V18.1432C98.0242 19.3262 96.2009 19.7733 95.2653 19.7733C92.1679 19.7733 89.0693 17.3314 89.0693 13.3896C89.0693 9.44881 92.1668 7.00688 95.2653 7.00688C96.0457 7.00688 97.869 7.26735 98.8056 8.63483V7.27386H102.398V19.5378L98.8056 19.5367V19.5356ZM88.047 19.5356H84.4546V18.0119C83.8544 19.1406 82.399 19.7983 80.8883 19.7983C77.7637 19.7983 75.0038 17.3032 75.0038 13.4395C75.0038 9.50308 77.7637 7.0047 80.8883 7.0047C82.3969 7.0047 83.8566 7.63418 84.4546 8.76399V0.588379H88.047V19.5356ZM84.3764 13.3624C84.3764 11.5239 83.0491 10.4462 81.5655 10.4462C80.0287 10.4462 78.7524 11.6021 78.7524 13.3624C78.7524 15.1792 80.0287 16.3297 81.5644 16.3297C83.0763 16.3318 84.3764 15.1228 84.3764 13.3624ZM66.1216 13.0455C66.1216 11.181 67.0854 10.5504 68.3606 10.5504C69.5837 10.5504 70.4693 11.3644 70.4693 12.9923V19.5335H74.0877V12.2055C74.0877 8.71298 72.3686 7.0047 69.6348 7.0047C68.2032 7.0047 66.7717 7.81868 66.1205 9.05376V7.26952H62.5043V19.5335H66.1216V13.0455ZM55.1568 19.744C51.7207 19.744 48.8544 17.2229 48.8544 13.3613C48.8544 9.49765 51.7174 7.00145 55.1568 7.00145C58.5961 7.00145 61.4841 9.49765 61.4841 13.3613C61.4841 17.225 58.5929 19.7451 55.1568 19.7451V19.744ZM55.1568 16.1734C56.6653 16.1734 57.9167 15.0685 57.9167 13.3624C57.9167 11.7073 56.6664 10.5775 55.1568 10.5775C54.4222 10.566 53.7151 10.8568 53.2011 11.3817C52.6842 11.9094 52.4034 12.6241 52.4229 13.3624C52.424 15.0707 53.6732 16.1734 55.1568 16.1734ZM42.3675 10.5515C43.4344 10.5515 44.3721 11.3926 44.3721 12.9934V19.5356H47.9645V12.5702C47.9645 8.86709 46.1639 7.00253 43.2781 7.00253C42.4207 7.00253 40.8058 7.26301 39.6336 9.18183C38.9564 7.76333 37.6551 7.0275 35.732 7.0275C34.3683 7.02056 33.1265 7.81165 32.5564 9.05051V7.27061H28.9358V19.5346H32.5531V13.0455C32.5531 11.181 33.569 10.5504 34.6619 10.5504C35.7038 10.5504 36.6393 11.3644 36.6664 12.9142V19.5346H40.2848V13.0455C40.2848 11.2624 41.2225 10.5526 42.3675 10.5526V10.5515Z" fill="#333333"/>
</svg>
