<svg width="138" height="30" viewBox="0 0 138 30" fill="none" xmlns="http://www.w3.org/2000/svg">
<path d="M136.385 10.7537C137.46 11.6236 136.322 12.9996 135.373 12.3037C134.202 11.5604 131.545 11.2124 131.213 12.8572C130.786 15.4512 137.666 13.9645 137.555 18.1715C137.445 22.189 131.624 22.2838 129.441 20.4807C128.92 20.0538 128.935 19.3578 129.22 18.9307C129.631 18.5196 130.09 18.3772 130.628 18.82C131.925 19.7057 135.262 20.37 135.499 18.1241C135.294 15.7833 128.714 17.1909 129.204 12.6991C129.568 9.63074 134.202 9.07712 136.385 10.7537ZM126.009 11.3705V17.096C126.009 23.0113 116.471 23.0113 116.471 17.096V11.3705C116.471 9.94713 118.543 9.8838 118.543 11.3705V17.096C118.543 20.2118 123.937 20.4017 123.937 17.096V11.3705C123.937 9.96283 126.009 9.85214 126.009 11.3705ZM60.7012 9.9313C63.469 10.0735 66.3634 11.9873 66.3634 15.7359C66.3634 19.4843 63.469 21.4298 60.7012 21.4298C57.7751 21.5563 54.7384 19.6108 54.7384 15.7359C54.7384 11.845 57.7751 9.9313 60.7012 9.9313ZM74.6357 10.3266C78.6531 10.3266 79.4755 15.7042 76.1225 17.0486L78.226 19.6108C79.0485 20.8288 77.4035 21.9991 76.4546 20.7971L74.0663 17.3808H71.5831V20.2435C71.5831 21.6195 69.4796 21.667 69.4796 20.2752V11.2915C69.4796 10.7378 69.9066 10.3266 70.4286 10.3266H74.6357ZM41.8633 10.1844C42.322 10.1844 42.5909 10.4532 42.8598 10.7537L46.3394 15.4512L49.9455 10.5797C50.4674 9.93131 51.7486 10.1844 51.7486 11.2756V20.1803C51.7486 20.8761 51.3057 21.2716 50.7996 21.2716C50.2302 21.2716 49.7873 20.8761 49.7873 20.1803V14.3282L47.1619 17.6497C46.5924 18.3455 45.8807 18.3455 45.3588 17.6497L43.0021 14.3282V20.1803C43.0021 20.8761 42.4327 21.2716 41.8633 21.2716C41.3572 21.2716 40.9144 20.8761 40.9144 20.1803V11.2756C40.9144 10.4533 41.6103 10.1844 41.8633 10.1844ZM86.103 10.1844C88.1591 10.1844 90.0096 11.5604 90.0096 14.2017C90.0096 16.7006 88.1591 18.0925 86.103 18.0925H83.4616V20.1803C83.4616 20.8761 83.0187 21.2716 82.4493 21.2716C81.9274 21.2716 81.3738 20.8761 81.3738 20.1803V11.2756C81.3738 10.7537 81.7851 10.1844 82.4493 10.1844H86.103ZM101.208 10.3266C101.762 10.3266 102.189 10.7378 102.189 11.3073V20.291C102.189 20.8445 101.762 21.2716 101.208 21.2716C100.639 21.2716 100.133 20.8445 100.133 20.291V16.8272H94.9764V20.291C94.9764 20.8445 94.5652 21.2716 94.0116 21.2716C93.2999 21.2716 92.8886 20.8445 92.8886 20.291V11.3073C92.8886 10.7379 93.2999 10.3266 94.0116 10.3266C94.5652 10.3266 94.9764 10.7378 94.9764 11.3073V14.7553H100.133V11.3073C100.133 10.7379 100.639 10.3266 101.208 10.3266ZM112.217 10.3266C113.672 10.3266 113.64 12.3827 112.217 12.3827H107.662V14.7553H111.647C113.055 14.7553 113.055 16.8272 111.647 16.8272H107.662V19.1996H112.486C113.925 19.1996 114.035 21.2716 112.486 21.2716H106.539C105.985 21.2716 105.558 20.8445 105.558 20.291V11.3073C105.558 10.7379 105.985 10.3266 106.539 10.3266H112.217ZM60.5271 11.9873C58.7557 11.9873 56.8262 13.2369 56.8262 15.7359C56.8262 18.219 58.7557 19.4843 60.5271 19.4843C62.3461 19.4843 64.2915 18.219 64.2915 15.7359C64.2915 13.2369 62.3461 11.9873 60.5271 11.9873ZM86.103 12.1772H83.4616V16.1155H86.103C87.1626 16.1155 88.0009 15.1823 88.0009 14.2017C88.0009 13.0946 87.1626 12.1772 86.103 12.1772ZM74.6357 12.2404H71.5831V15.5619H74.6357C76.6918 15.5619 76.8183 12.2404 74.6357 12.2404Z" fill="#3DB5E6"/>
<path d="M28.368 18.6299C26.826 24.8249 21.1841 29.2325 14.5393 29.2325C7.86438 29.2325 2.27109 24.5641 0.792297 18.3435C2.57047 18.3435 4.23281 18.3516 5.00456 18.3516C5.36861 18.3516 5.43931 18.3579 5.46038 18.3564C6.04107 18.3278 6.76919 18.1362 7.25359 16.9582L9.09947 12.1296L13.1989 21.9998C13.5675 22.7866 14.1828 22.7308 14.5498 22.7308H14.5844C15.3005 22.7308 15.6119 22.4799 15.8842 21.9609L20.5147 12.2036L22.0943 16.601L22.1906 16.8139C22.5245 17.5466 22.7648 18.2702 23.5913 18.3648C23.7617 18.3843 25.7402 18.3497 28.4075 18.3497C28.4075 18.3497 28.4075 18.3668 28.368 18.6299Z" fill="#3DB5E6"/>
<path d="M28.8207 14.9811C28.8207 15.0549 28.8207 15.2403 28.8192 15.2403H28.8162H24.5589L22.0751 8.30196C21.8539 7.78596 21.5215 7.01241 20.5526 7.01241C19.9599 7.01241 19.4244 7.50193 19.1205 8.30978L14.6179 18.7392L10.2838 8.37304C9.85953 7.45236 9.56618 7.01936 8.71771 7.01936C8.14153 7.01936 7.7188 7.23161 7.25846 8.32228L4.68598 15.3433L0.41204 15.3388C0.409029 15.232 0.407532 15.1252 0.407532 15.0184C0.407532 7.21367 6.73494 0.906006 14.5397 0.906006C22.3444 0.906006 28.8207 7.17643 28.8207 14.9811Z" fill="#D8292F"/>
</svg>
