<svg width="138" height="22" viewBox="0 0 138 22" fill="none" xmlns="http://www.w3.org/2000/svg">
<path d="M19.2721 21.7498V16.1895H13.2168C11.5701 16.1895 10.0448 17.0539 9.20137 18.4652L7.23828 21.7498H19.2721Z" fill="#63D2F9"/>
<path d="M0 0.388672V5.94906H15.949L19.2722 0.388672H0Z" fill="#4E5EE4"/>
<path d="M7.63304 9.07888L0.0175781 21.7499H6.50577L15.6125 6.59082H12.0297C10.2276 6.59082 8.55802 7.53562 7.63304 9.07888Z" fill="#63B0F9"/>
<path d="M33.0764 16.4131C29.8138 16.4131 27.4131 14.0416 27.4131 10.8592C27.4131 7.70744 29.8292 5.30535 33.0918 5.30535C36.3543 5.30535 38.7704 7.73804 38.7704 10.8592C38.7704 14.011 36.3389 16.4131 33.0764 16.4131ZM33.0918 14.47C35.1539 14.47 36.6313 12.94 36.6313 10.8592C36.6313 8.80903 35.1539 7.24844 33.0918 7.24844C31.0142 7.24844 29.5368 8.80903 29.5368 10.8592C29.5368 12.94 31.0142 14.47 33.0918 14.47ZM40.9552 19.7332V8.16644H42.925V9.19153H43.0327C43.2482 8.85493 43.9869 7.96754 45.4643 7.96754C47.7265 7.96754 49.2808 9.65053 49.2808 12.1597C49.2808 14.6689 47.7419 16.4131 45.5258 16.4131C44.0946 16.4131 43.3251 15.6175 43.0635 15.1738H42.9558V19.7332H40.9552ZM45.0795 14.6077C46.3722 14.6077 47.2494 13.6132 47.2494 12.1903C47.2494 10.7215 46.3722 9.77293 45.0641 9.77293C43.7406 9.77293 42.9096 10.8286 42.9096 12.1903C42.9096 13.6897 43.833 14.6077 45.0795 14.6077ZM55.0051 16.4131C52.6197 16.4131 50.9269 14.6383 50.9269 12.2362C50.9269 9.69643 52.6351 7.96754 55.0051 7.96754C57.6059 7.96754 59.0217 9.88003 59.0217 12.1444V12.7717H52.866C52.9275 13.9957 53.7739 14.8219 55.0667 14.8219C56.0516 14.8219 56.8057 14.3629 57.0827 13.705H58.9448C58.5447 15.3421 57.0981 16.4131 55.0051 16.4131ZM52.8968 11.3641H57.1134C57.0211 10.2778 56.1747 9.55873 55.0051 9.55873C53.8817 9.55873 53.0199 10.3543 52.8968 11.3641ZM61.1757 16.2142V8.16644H63.084V9.14563H63.1917C63.5149 8.54893 64.3151 7.96754 65.4693 7.96754C67.2853 7.96754 68.3933 9.23743 68.3933 10.951V16.2142H66.3927V11.4712C66.3927 10.492 65.7617 9.83413 64.8383 9.83413C63.8688 9.83413 63.1763 10.5991 63.1763 11.6089V16.2142H61.1757ZM70.3779 16.2142V14.3935L75.9797 7.37084V7.26374H70.578V5.50425H78.5343V7.30964L72.9326 14.3323V14.4547H78.5651V16.2142H70.3779ZM83.9816 16.4131C81.5962 16.4131 79.9034 14.6383 79.9034 12.2362C79.9034 9.69643 81.6116 7.96754 83.9816 7.96754C86.5824 7.96754 87.9982 9.88003 87.9982 12.1444V12.7717H81.8425C81.904 13.9957 82.7504 14.8219 84.0431 14.8219C85.0281 14.8219 85.7821 14.3629 86.0592 13.705H87.9213C87.5211 15.3421 86.0745 16.4131 83.9816 16.4131ZM81.8732 11.3641H86.0899C85.9976 10.2778 85.1512 9.55873 83.9816 9.55873C82.8582 9.55873 81.9964 10.3543 81.8732 11.3641ZM90.1522 19.7332V8.16644H92.122V9.19153H92.2297C92.4452 8.85493 93.1839 7.96754 94.6612 7.96754C96.9235 7.96754 98.4778 9.65053 98.4778 12.1597C98.4778 14.6689 96.9389 16.4131 94.7228 16.4131C93.2916 16.4131 92.5221 15.6175 92.2605 15.1738H92.1528V19.7332H90.1522ZM94.2765 14.6077C95.5692 14.6077 96.4464 13.6132 96.4464 12.1903C96.4464 10.7215 95.5692 9.77293 94.2611 9.77293C92.9376 9.77293 92.1066 10.8286 92.1066 12.1903C92.1066 13.6897 93.03 14.6077 94.2765 14.6077ZM100.632 19.7332V8.16644H102.602V9.19153H102.709C102.925 8.85493 103.663 7.96754 105.141 7.96754C107.403 7.96754 108.957 9.65053 108.957 12.1597C108.957 14.6689 107.418 16.4131 105.202 16.4131C103.771 16.4131 103.002 15.6175 102.74 15.1738H102.632V19.7332H100.632ZM104.756 14.6077C106.049 14.6077 106.926 13.6132 106.926 12.1903C106.926 10.7215 106.049 9.77293 104.741 9.77293C103.417 9.77293 102.586 10.8286 102.586 12.1903C102.586 13.6897 103.51 14.6077 104.756 14.6077ZM114.682 16.4131C112.296 16.4131 110.604 14.6383 110.604 12.2362C110.604 9.69643 112.312 7.96754 114.682 7.96754C117.282 7.96754 118.698 9.88003 118.698 12.1444V12.7717H112.543C112.604 13.9957 113.451 14.8219 114.743 14.8219C115.728 14.8219 116.482 14.3629 116.759 13.705H118.621C118.221 15.3421 116.775 16.4131 114.682 16.4131ZM112.573 11.3641H116.79C116.698 10.2778 115.851 9.55873 114.682 9.55873C113.558 9.55873 112.696 10.3543 112.573 11.3641ZM122.822 16.2142C121.406 16.2142 120.606 15.3727 120.606 13.9498V4.73926H122.607V13.7662C122.607 14.2252 122.837 14.47 123.253 14.47H123.576V16.2142H122.822ZM126.5 7.09544C125.776 7.09544 125.268 6.65175 125.268 5.93265C125.268 5.24415 125.776 4.78516 126.5 4.78516C127.223 4.78516 127.731 5.24415 127.731 5.93265C127.731 6.65175 127.223 7.09544 126.5 7.09544ZM125.499 16.2142V8.16644H127.5V16.2142H125.499ZM129.931 16.2142V8.16644H131.839V9.14563H131.947C132.27 8.54893 133.07 7.96754 134.224 7.96754C136.04 7.96754 137.148 9.23743 137.148 10.951V16.2142H135.148V11.4712C135.148 10.492 134.517 9.83413 133.594 9.83413C132.624 9.83413 131.931 10.5991 131.931 11.6089V16.2142H129.931Z" fill="#282846"/>
</svg>
