<svg width="138" height="18" viewBox="0 0 138 18" fill="none" xmlns="http://www.w3.org/2000/svg">
<path d="M59.9118 11.7542H68.9743L64.1824 4.04474L55.3876 17.9838H51.3849L62.0823 1.24002C62.5475 0.563504 63.3226 0.154785 64.1824 0.154785C65.0139 0.154785 65.7891 0.549418 66.2401 1.21184L76.9798 17.9838H72.9771L71.0885 14.869H61.9132L59.9118 11.7542ZM101.489 14.869V0.323914H98.0927V16.2925C98.0927 16.7294 98.2619 17.1522 98.586 17.4764C98.9101 17.8006 99.3471 17.9838 99.8263 17.9838H115.316L117.317 14.869H101.489ZM45.2963 12.2616C48.5944 12.2616 51.2722 9.59782 51.2722 6.2998C51.2722 3.00179 48.5944 0.323914 45.2963 0.323914H30.4368V17.9838H33.8322V3.43871H45.0708C46.6494 3.43871 47.9178 4.72126 47.9178 6.2998C47.9178 7.87834 46.6494 9.1609 45.0708 9.1609L35.4953 9.1468L45.6345 17.9838H50.5675L43.746 12.2616H45.2963ZM9.53541 17.9838C4.66022 17.9838 0.703979 14.0375 0.703979 9.1609C0.703979 4.28435 4.66022 0.323914 9.53541 0.323914H19.8001C24.6766 0.323914 28.63 4.28435 28.63 9.1609C28.63 14.0375 24.6766 17.9838 19.8001 17.9838H9.53541ZM19.5717 14.869C22.7303 14.869 25.2883 12.318 25.2883 9.1609C25.2883 6.00383 22.7303 3.43871 19.5717 3.43871H9.76228C6.6052 3.43871 4.04566 6.00383 4.04566 9.1609C4.04566 12.318 6.6052 14.869 9.76228 14.869H19.5717ZM84.0691 17.9838C79.1925 17.9838 75.2321 14.0375 75.2321 9.1609C75.2321 4.28435 79.1925 0.323914 84.0691 0.323914H96.2605L94.2732 3.43871H84.2946C81.1375 3.43871 78.5724 6.00383 78.5724 9.1609C78.5724 12.318 81.1375 14.869 84.2946 14.869H96.5423L94.541 17.9838H84.0691ZM125.604 14.869C122.997 14.869 120.784 13.1213 120.108 10.7112H134.625L136.626 7.59645H120.108C120.784 5.20046 122.997 3.43871 125.604 3.43871H135.569L137.584 0.323914H125.379C120.502 0.323914 116.542 4.28435 116.542 9.1609C116.542 14.0375 120.502 17.9838 125.379 17.9838H135.851L137.852 14.869H125.604Z" fill="#EA1B22"/>
</svg>
