<svg width="138" height="33" viewBox="0 0 138 33" fill="none" xmlns="http://www.w3.org/2000/svg">
<path d="M0.520286 24.3274C0.355811 24.2324 0.221069 23.9995 0.221069 23.8104V8.32749C0.221069 8.1381 0.355811 7.90557 0.520286 7.81035L14.101 0.0712809C14.2657 -0.0237603 14.535 -0.0237603 14.6996 0.0712809L28.2795 7.81121C28.4442 7.90625 28.5788 8.13879 28.5788 8.32818V23.8111C28.5788 24 28.4442 24.2327 28.2795 24.3281L14.6996 32.0674C14.535 32.1624 14.2657 32.1624 14.101 32.0674L0.520286 24.3274ZM41.3351 9.86843V16.1484H44.0205C45.9694 16.1484 46.8356 15.3544 46.8356 14.0551V11.9617C46.8356 10.6626 45.9694 9.86843 44.0205 9.86843H41.3351ZM41.3351 18.1454V23.7517C41.3351 24.0884 41.2485 24.2327 40.9453 24.2327H39.6242C39.3427 24.2327 39.2344 24.0884 39.2344 23.7517V8.35276C39.2344 8.0159 39.3427 7.87137 39.6242 7.87137H44.0205C47.7453 7.87137 48.9363 9.60376 48.9363 11.5768V14.4402C48.9363 16.413 47.7453 18.1454 44.0205 18.1454H41.3351ZM53.8235 9.86843V15.7634H56.5087C58.4578 15.7634 59.3242 14.9934 59.3242 13.6701V11.9617C59.3242 10.6626 58.4578 9.86843 56.5087 9.86843H53.8235ZM53.8235 17.7605V23.7517C53.8235 24.0884 53.7367 24.2327 53.4335 24.2327H52.1126C51.831 24.2327 51.7228 24.0884 51.7228 23.7517V8.35276C51.7228 8.0159 51.831 7.87137 52.1126 7.87137H56.5087C60.2337 7.87137 61.4247 9.60376 61.4247 11.5768V14.0791C61.4247 15.5468 60.7534 16.8702 58.8909 17.4478L61.4897 23.7517C61.5979 24.0404 61.4031 24.2327 61.0999 24.2327H59.8004C59.4972 24.2327 59.4539 24.0404 59.3242 23.7517L56.8768 17.7605H53.8235ZM72.8092 11.7693C72.8092 10.47 71.8951 9.67595 69.8378 9.67595C67.8035 9.67595 66.8893 10.47 66.8893 11.7693V20.3348C66.8893 21.6343 67.8035 22.4281 69.8378 22.4281C71.8951 22.4281 72.8092 21.6343 72.8092 20.3348V11.7693ZM64.6492 11.3843C64.6492 9.41127 65.9293 7.67905 69.8378 7.67905C73.7692 7.67905 75.0495 9.41127 75.0495 11.3843V20.72C75.0495 22.693 73.7692 24.4254 69.8378 24.4254C65.9293 24.4254 64.6492 22.693 64.6492 20.72V11.3843ZM87.1181 7.87137C87.4153 7.87137 87.5525 7.99184 87.5525 8.32853V9.41127C87.5525 9.74813 87.4153 9.86843 87.1181 9.86843H83.461V23.7517C83.461 24.0884 83.3467 24.2327 83.0494 24.2327H81.6324C81.3352 24.2327 81.221 24.0884 81.221 23.7517V9.86843H77.5637C77.2438 9.86843 77.1295 9.74813 77.1295 9.41127V8.32853C77.1295 7.99184 77.2438 7.87137 77.5637 7.87137H87.1181ZM97.7703 11.7693C97.7703 10.47 96.856 9.67595 94.799 9.67595C92.7646 9.67595 91.8503 10.47 91.8503 11.7693V20.3348C91.8503 21.6343 92.7646 22.4281 94.799 22.4281C96.856 22.4281 97.7703 21.6343 97.7703 20.3348V11.7693ZM89.6102 11.3843C89.6102 9.41127 90.8902 7.67905 94.799 7.67905C98.7304 7.67905 100.01 9.41127 100.01 11.3843V20.72C100.01 22.693 98.7304 24.4254 94.799 24.4254C90.8902 24.4254 89.6102 22.693 89.6102 20.72V11.3843ZM113.241 23.7756C113.241 24.0884 113.154 24.2327 112.851 24.2327H111.66C111.444 24.2327 111.357 24.1605 111.27 24.0162L106.181 14.1034C105.705 13.2129 105.445 12.467 105.401 12.3708V23.7756C105.401 24.0884 105.293 24.2327 105.012 24.2327H103.799C103.517 24.2327 103.409 24.0884 103.409 23.7756V8.32853C103.409 8.0159 103.517 7.87137 103.799 7.87137H105.012C105.185 7.87137 105.293 7.94355 105.358 8.06385L110.577 18.1936C110.881 18.771 111.249 19.7333 111.249 19.7333V8.32853C111.249 8.0159 111.379 7.87137 111.66 7.87137H112.851C113.154 7.87137 113.241 8.0159 113.241 8.32853V23.7756ZM116.965 24.2327C116.684 24.2327 116.575 24.0884 116.575 23.7517V8.35276C116.575 8.0159 116.684 7.87137 116.965 7.87137H124.372C124.653 7.87137 124.783 7.99184 124.783 8.32853V9.41127C124.783 9.74813 124.653 9.86843 124.372 9.86843H118.676V14.7288H123.982C124.285 14.7288 124.415 14.8491 124.415 15.1859V16.2206C124.415 16.5334 124.285 16.6777 123.982 16.6777H118.676V22.2358H124.61C124.891 22.2358 125.021 22.3321 125.021 22.6688V23.7756C125.021 24.1126 124.891 24.2327 124.61 24.2327H116.965ZM136.958 7.87137C137.239 7.87137 137.369 7.99184 137.369 8.32853V9.41127C137.369 9.74813 137.239 9.86843 136.958 9.86843H133.493V23.7517C133.493 24.0884 133.384 24.2327 133.103 24.2327H131.76C131.479 24.2327 131.37 24.0884 131.37 23.7517V9.86843H127.905C127.602 9.86843 127.494 9.74813 127.494 9.41127V8.32853C127.494 7.99184 127.602 7.87137 127.905 7.87137H136.958Z" fill="#E15B29"/>
</svg>
