<svg width="138" height="22" viewBox="0 0 138 22" fill="none" xmlns="http://www.w3.org/2000/svg">
<path d="M130.325 9.79236V12.6518H132.334V15.4889C132.34 15.7062 132.33 15.9381 132.3 16.1377L132.283 16.2346C132.28 16.2562 132.276 16.2784 132.271 16.3012L132.255 16.371C132.252 16.3828 132.248 16.3948 132.245 16.4069L132.222 16.4805C132.041 17.0029 131.497 17.6649 130.274 17.6649C128.972 17.6649 128.449 16.9049 128.306 16.371L128.289 16.3012L128.277 16.2346C128.241 16.0158 128.226 15.7424 128.226 15.4889V6.52805C128.226 6.24631 128.242 5.94089 128.293 5.69208L128.328 5.54088C128.33 5.53041 128.333 5.51976 128.336 5.50896L128.355 5.44237C128.358 5.43099 128.362 5.41948 128.366 5.40784L128.391 5.33666C128.577 4.84156 129.068 4.18217 130.264 4.18217C131.186 4.18217 131.683 4.55819 131.949 4.94683L131.996 5.01976C132.011 5.04405 132.025 5.06832 132.038 5.09245L132.075 5.16437L132.108 5.23499L132.136 5.30378L132.16 5.3702L132.181 5.43373L132.198 5.49382L132.212 5.54995L132.223 5.60158C132.229 5.62726 132.233 5.65452 132.238 5.68286L132.249 5.77064C132.251 5.78564 132.253 5.80079 132.254 5.81602L132.266 5.95365L132.274 6.08565L132.281 6.26563L132.283 6.35786V7.44597H137.221L137.222 6.76862L137.225 6.52638L137.224 6.3386L137.22 6.11995L137.216 6.00224L137.207 5.81877L137.194 5.63082L137.183 5.50516C136.849 2.19501 134.361 0.921454 131.334 0.699845L131.131 0.686618L130.927 0.676444C130.825 0.672109 130.722 0.668894 130.619 0.666763L130.411 0.663936C130.377 0.663585 130.342 0.663585 130.307 0.663585L130.099 0.665005C130.064 0.66548 130.03 0.666075 129.995 0.666792L129.789 0.672558L129.584 0.681302L129.381 0.693085L129.18 0.707972C129.113 0.713459 129.046 0.719473 128.98 0.726026L128.782 0.74731C128.749 0.75113 128.716 0.755087 128.684 0.759183L128.489 0.78543C128.037 0.850602 127.601 0.943444 127.189 1.06757L127.014 1.1227C125.1 1.75037 123.71 3.08486 123.425 5.50516L123.395 5.77382L123.375 5.98183L123.356 6.19992L123.34 6.41689C123.331 6.55867 123.326 6.69226 123.326 6.80272L123.326 15.1515L123.328 15.2552L123.332 15.4127L123.337 15.5231L123.344 15.641L123.352 15.7692L123.364 15.9105L123.386 16.1529L123.404 16.3388C123.681 19.4148 126.013 20.7832 128.865 21.106L129.065 21.1269C129.4 21.1588 129.741 21.1768 130.086 21.1819L130.293 21.1834L130.502 21.1819C130.849 21.1768 131.192 21.1588 131.527 21.1269L131.728 21.106C134.59 20.7832 136.906 19.4148 137.188 16.3388L137.211 16.0676L137.228 15.8381L137.243 15.5809L137.252 15.3594L137.26 15.0458V9.79236H130.325ZM96.2781 1.19102H91.3195V15.6956C91.3273 15.9484 91.3195 16.2323 91.2759 16.4406L91.2613 16.5037L91.2432 16.5709C91.2366 16.5939 91.2293 16.6175 91.2214 16.6415L91.1954 16.7151C91.0084 17.2138 90.5318 17.8645 89.3918 17.8645C88.3227 17.8645 87.8345 17.2772 87.6301 16.7909L87.6001 16.7151C87.5955 16.7026 87.5911 16.6903 87.5868 16.678L87.5634 16.6058L87.5441 16.5368C87.5412 16.5256 87.5385 16.5145 87.5359 16.5037L87.5222 16.4406C87.4726 16.2323 87.4663 15.9484 87.4726 15.6956V1.19102H82.5155V15.2455L82.5146 15.3584L82.5163 15.556L82.5232 15.8467L82.5368 16.2L82.5463 16.3779L82.5528 16.4723L82.559 16.5418C82.8019 19.142 84.3274 20.4955 86.4818 21.0618L86.6653 21.1078C87.0662 21.2035 87.4875 21.2732 87.9252 21.3197L88.1284 21.3396L88.3339 21.3562L88.5415 21.3697C88.6458 21.3756 88.7509 21.3804 88.8568 21.3841L89.0694 21.3899L89.2839 21.3928C89.3198 21.3932 89.3557 21.3932 89.3918 21.3932L89.6076 21.3917C89.6434 21.3912 89.6791 21.3906 89.7148 21.3899L89.9278 21.3841C90.0338 21.3804 90.1391 21.3756 90.2436 21.3697L90.4515 21.3562L90.6573 21.3396L90.8608 21.3197C93.761 21.0117 95.9364 19.6914 96.2361 16.5418L96.2401 16.5105L96.2482 16.4279L96.2602 16.2634L96.2709 16.0642L96.2768 15.9203L96.2828 15.6995L96.2845 15.556L96.284 15.4212L96.2808 15.2997C96.28 15.2808 96.2791 15.2627 96.2781 15.2455V1.19102ZM50.7173 1.19102L48.2438 16.5171L45.7718 1.19102H37.7732L37.3489 20.7975H42.2492L42.3819 2.64719L45.7534 20.7975H50.7251L54.0997 2.64719L54.2329 20.7975H59.1455L58.7069 1.19102H50.7173ZM21.1027 1.19102L17.4708 20.7975H22.7671L25.5039 2.64719L28.1751 20.7975H33.4346L29.8178 1.19102H21.1027ZM113.608 16.9765L108.99 1.19102H101.715V20.5931H106.528L106.248 4.30251L111.207 20.5931H118.185V1.19102H113.34L113.608 16.9765ZM69.0872 6.29367C69.0001 5.90646 69.0252 5.49509 69.0703 5.28009C69.0831 5.22303 69.0981 5.1655 69.1159 5.10806L69.1447 5.02203C69.3403 4.47849 69.7979 3.96792 70.8472 3.96792C71.9796 3.96792 72.6435 4.67385 72.6435 5.73325V6.93213H77.4773V5.56558C77.4773 2.48169 75.4589 1.29538 73.3023 0.879595L73.1248 0.847133L72.9468 0.818002L72.7688 0.792062L72.5908 0.769176L72.4131 0.749203L72.2359 0.732006C72.1769 0.72672 72.1181 0.721874 72.0595 0.717443L71.8841 0.705378L71.7099 0.69567L71.5372 0.688181L71.3662 0.682771L71.1972 0.679302L70.9477 0.677432L70.8377 0.677819L70.619 0.68094C70.5827 0.681723 70.5465 0.682638 70.5103 0.683686L70.2945 0.691581C70.2229 0.694752 70.1516 0.698464 70.0807 0.702726L69.869 0.71717C66.92 0.942746 64.6188 2.15405 64.1585 4.99459C64.0223 5.85963 63.9886 6.6275 64.2053 7.60734C64.5465 9.21749 65.8879 10.3633 67.4276 11.3243L67.6659 11.4707C67.7058 11.4949 67.7459 11.519 67.786 11.5429L68.0279 11.6854L68.2712 11.8255L68.5154 11.9636L68.8818 12.1671L69.8447 12.6948L70.0787 12.8245L70.3086 12.9538L70.5339 13.0829L70.7539 13.212C71.8033 13.8365 72.6441 14.4699 72.9466 15.2271C73.1141 15.6769 73.0775 16.244 72.9965 16.6058L72.9826 16.6641C72.9626 16.7511 72.9375 16.8381 72.9059 16.9237L72.872 17.0087C72.6493 17.529 72.1625 17.9725 71.0929 17.9725C69.8729 17.9725 69.1385 17.2711 69.1385 16.214L69.137 14.3323H63.9342V15.828C63.9342 19.3386 66.1614 20.8635 68.9509 21.3163L69.1585 21.3479C69.2976 21.3676 69.438 21.3849 69.5794 21.3996L69.7923 21.4199C70.0415 21.4415 70.2938 21.4558 70.5479 21.4633L70.7661 21.4681C70.8026 21.4686 70.8391 21.469 70.8756 21.4693L70.9852 21.4697C71.0581 21.4697 71.1308 21.4692 71.2032 21.4681L71.4196 21.4634C71.4555 21.4623 71.4913 21.4611 71.5271 21.4598L71.7408 21.4503C71.8117 21.4465 71.8822 21.4423 71.9525 21.4374L72.1621 21.4213C72.3012 21.4094 72.4389 21.3952 72.575 21.3788L72.778 21.3524L72.9786 21.3225C73.045 21.3119 73.1111 21.3008 73.1766 21.289L73.3721 21.2519C75.7334 20.7788 77.4903 19.496 77.8431 17.0294C77.8917 16.6615 77.9215 16.3218 77.9376 16.0112L77.9464 15.8085C77.9475 15.7755 77.9485 15.7428 77.9493 15.7104L77.9526 15.5208V15.34L77.9495 15.1681L77.9439 15.0051L77.936 14.8511C77.9345 14.8262 77.933 14.8017 77.9313 14.7775L77.9206 14.6372L77.9084 14.5061L77.895 14.3842L77.8735 14.2188L77.8512 14.0746L77.8221 13.9157L77.8086 13.8507C77.4681 12.1433 75.9734 10.9374 74.3128 9.94469L74.0745 9.8043L73.8346 9.66663L73.5938 9.53148L73.2321 9.33309L72.7524 9.07568L71.9344 8.64056L71.5977 8.45843C71.5609 8.4383 71.5243 8.4182 71.488 8.39813L71.2726 8.278L71.0633 8.15835C70.0329 7.56096 69.2542 6.9744 69.0872 6.29367ZM5.32347 6.24558C5.23449 5.87502 5.2484 5.48522 5.29405 5.25871L5.31294 5.1739L5.33439 5.08998C5.49769 4.50124 5.94415 3.89441 7.09812 3.89441C8.24488 3.89441 8.92009 4.60713 8.92009 5.6751V6.88857H13.8105V5.5112C13.8105 2.56832 11.9797 1.3324 9.93398 0.848937L9.75559 0.80877C9.60654 0.77684 9.45661 0.748715 9.30641 0.724033L9.12609 0.696044L8.94574 0.67122L8.7656 0.649423L8.58592 0.630512C8.52613 0.624674 8.46645 0.619294 8.40693 0.614348L8.22886 0.600792L8.05194 0.589704L7.87642 0.580945L7.70254 0.574375L7.53052 0.569855L7.27651 0.566406H7.19303C7.11971 0.566406 7.04668 0.566919 6.97394 0.567952L6.75664 0.572621C6.61239 0.576787 6.46939 0.583068 6.32778 0.591532L6.11641 0.605873C6.08136 0.608538 6.0464 0.611343 6.01153 0.614286L5.80345 0.633631C5.73446 0.640642 5.66587 0.64822 5.59767 0.656373L5.3943 0.682563C5.22584 0.705839 5.06 0.732758 4.89699 0.76345L4.70277 0.802099L4.51138 0.844421L4.32291 0.890464C4.26058 0.906438 4.19876 0.92304 4.13746 0.940279L3.95512 0.993915C2.05719 1.57733 0.689447 2.80092 0.344182 4.9241C0.201687 5.80299 0.177266 6.57614 0.383205 7.56681C0.745769 9.27878 2.22449 10.471 3.87882 11.4728L4.12206 11.6181C4.16277 11.6421 4.20356 11.6659 4.24442 11.6897L4.49019 11.8314L4.86028 12.0399L5.35296 12.3117L6.07966 12.7099L6.43268 12.9064L6.77587 13.1022L6.99811 13.2328C7.03466 13.2545 7.07097 13.2763 7.10701 13.2981L7.31999 13.4291C8.22823 13.998 8.93957 14.5839 9.21415 15.2709C9.39398 15.7176 9.35193 16.2845 9.26695 16.6581L9.25241 16.7185C9.23143 16.8045 9.20566 16.8905 9.17379 16.9752L9.13985 17.0594C8.91139 17.5889 8.42109 18.043 7.33754 18.043C6.11273 18.043 5.38011 17.3295 5.38011 16.2578L5.37332 14.3711H0.112061V15.8703C0.112061 20.0786 3.28495 21.4618 6.7988 21.5657L7.01884 21.5706L7.2396 21.5722L7.4579 21.5706C7.56663 21.5691 7.67472 21.5663 7.78212 21.5624L7.99596 21.553C8.10241 21.5474 8.20812 21.5407 8.31305 21.5327L8.52185 21.5151L8.72847 21.4941C8.79697 21.4865 8.86508 21.4784 8.93281 21.4697L9.13477 21.4419C9.20169 21.4321 9.26819 21.4216 9.33427 21.4106L9.5312 21.3757C11.9764 20.9179 13.7988 19.6208 14.1657 17.0838C14.2163 16.7214 14.2479 16.3861 14.2655 16.0788L14.2753 15.8781L14.2813 15.6858C14.2826 15.6231 14.2835 15.5618 14.2837 15.5019L14.2831 15.3265L14.2796 15.1596L14.2737 15.0014L14.2656 14.8518L14.2557 14.7109L14.2444 14.5788L14.2252 14.3973L14.2046 14.2359L14.1768 14.0523L14.1451 13.8744C13.8058 12.1872 12.3556 10.9869 10.7241 9.99971L10.4841 9.85673C10.444 9.83314 10.4037 9.80967 10.3634 9.78632L10.1208 9.64754L9.87718 9.51133L9.63326 9.37749L9.38967 9.24584L8.31485 8.67531L7.97114 8.4911L7.74794 8.3694L7.53023 8.24835L7.31868 8.12778C7.28397 8.10771 7.24954 8.08765 7.21541 8.0676L7.01429 7.94737C6.12626 7.40644 5.47417 6.86524 5.32347 6.24558Z" fill="#1428A0"/>
</svg>
