<svg width="138" height="29" viewBox="0 0 138 29" fill="none" xmlns="http://www.w3.org/2000/svg">
<path d="M25.2642 15.0697L25.2823 15.0712L27.178 15.2693C27.3111 15.2837 27.4333 15.3486 27.5197 15.4502L27.5337 15.4674L27.5157 15.4764C27.6043 15.5882 27.6434 15.7313 27.6238 15.8726C27.2096 19.1654 25.6489 22.2071 23.2157 24.4638C20.6909 26.8055 17.3746 28.1065 13.931 28.1065C12.2585 28.1092 10.6003 27.8013 9.04058 27.1986L8.95561 27.1654C8.82795 27.1182 8.72538 27.0212 8.67108 26.8971L8.66291 26.8773C8.60974 26.7537 8.60678 26.6147 8.65405 26.4894L9.4023 24.6639C9.50369 24.4058 9.79103 24.2758 10.0505 24.3673L10.0678 24.3737C13.8924 25.8505 18.2242 25.0188 21.23 22.2305C23.1432 20.4725 24.3768 18.0975 24.715 15.5214C24.7508 15.2554 24.9816 15.0619 25.2461 15.0689L25.2642 15.0697ZM70.0347 7.32205C71.6511 7.32205 72.9152 7.81521 73.7225 8.76233L73.7495 8.79443V7.99294C73.7603 7.76923 73.9335 7.58842 74.1547 7.56659L74.1727 7.56517H76.3295C76.5514 7.58051 76.7279 7.75517 76.7471 7.97502L76.7483 7.99294V19.9656C76.818 21.6539 76.2991 23.3139 75.2804 24.662C74.1187 26.0758 72.3537 26.7917 70.0347 26.7917C66.8108 26.7917 64.2667 24.752 63.848 21.8387C63.8272 21.6284 63.9553 21.4328 64.1545 21.3669L64.1722 21.3614L66.2795 20.8661C66.2905 20.8637 66.3015 20.8616 66.3126 20.86C66.5439 20.8261 66.7589 20.9861 66.7928 21.2174C66.9852 22.8515 68.3898 24.0707 70.0347 24.0315C72.5266 24.0315 73.6989 22.765 73.7221 20.1182L73.7225 20.0376V18.9885C72.7884 20.0361 71.4376 20.6151 70.0347 20.569C66.4506 20.569 63.8526 17.7863 63.8526 13.959C63.8197 12.237 64.4261 10.5638 65.5545 9.26267C66.7007 8.00344 68.3322 7.29679 70.0347 7.32205ZM5.12431 21.8837L5.15104 21.8835L5.17786 21.8837C6.03819 21.8936 6.73089 22.5892 6.74024 23.4464L6.74031 23.4732C6.74031 23.4821 6.74021 23.4911 6.74005 23.5C6.72507 24.3777 6.00151 25.0771 5.1238 25.0622C4.24609 25.0472 3.5467 24.3237 3.56153 23.446C3.57621 22.5862 4.27083 21.8974 5.12431 21.8837ZM107.369 7.15546L107.48 7.15627C111.333 7.20948 113.72 9.89142 113.72 14.1841C113.72 14.4112 113.708 14.6382 113.684 14.864C113.664 15.0717 113.494 15.2319 113.287 15.2417L113.27 15.2422H104.111C104.167 17.1658 105.758 18.6877 107.682 18.6598C109.173 18.7535 110.533 17.8051 110.96 16.3725C111.038 16.1668 111.26 16.0562 111.469 16.1152L111.486 16.1203L113.314 16.7642C113.415 16.7967 113.498 16.8683 113.545 16.9624L113.553 16.9803C113.603 17.0795 113.612 17.1947 113.576 17.3C112.727 19.814 110.334 21.4775 107.682 21.3975C105.943 21.4148 104.269 20.7354 103.035 19.5108C101.688 18.0932 100.969 16.1925 101.04 14.2382C101.04 9.84739 104.196 7.2086 107.278 7.15626L107.369 7.15546ZM55.545 7.15546H55.5495C59.4714 7.15546 61.9074 9.84806 61.9074 14.1841C61.9071 14.4112 61.895 14.6382 61.8713 14.864C61.8531 15.0728 61.6822 15.2341 61.4745 15.2419L61.4571 15.2422H52.2986C52.3551 17.1711 53.9534 18.6952 55.8827 18.6598C57.3752 18.7552 58.7353 17.8062 59.1607 16.3725C59.237 16.1652 59.4604 16.0538 59.6705 16.115L59.6875 16.1203L61.5156 16.7642C61.6225 16.7987 61.7094 16.8774 61.7542 16.9803C61.797 17.0826 61.797 17.1977 61.7542 17.3C60.9058 19.8124 58.5154 21.4755 55.8647 21.3975C54.1228 21.4172 52.4457 20.7376 51.2089 19.5108C49.8634 18.0921 49.1446 16.1922 49.2142 14.2382C49.2142 9.80304 52.4337 7.15546 55.545 7.15546ZM41.6767 7.15091C43.4372 7.15091 44.8601 7.57868 45.9138 8.42064C46.6262 8.98842 47.1542 9.75462 47.4311 10.6225L47.432 10.626C47.4682 10.7756 47.3802 10.9263 47.2343 10.9697L47.2195 10.9737L45.0357 11.6942C44.9388 11.7325 44.8309 11.7325 44.7341 11.6942C44.6514 11.6555 44.5891 11.5834 44.5629 11.4961L44.5513 11.4531C44.3524 10.742 43.7021 9.60039 41.6767 9.60039C40.2359 9.60039 39.3714 10.4289 39.3714 11.2304L39.3717 11.2621C39.3825 11.7833 39.6659 12.4375 40.9086 12.6862L40.9473 12.6937L43.3517 13.144C46.0085 13.6789 47.5399 15.1229 47.5702 17.1353L47.5707 17.1964L47.5617 17.1605L47.5612 17.2215C47.5225 19.2388 45.5713 21.3614 41.9784 21.3614C37.7684 21.3614 36.1159 18.9795 35.8097 17.5747C35.7897 17.4277 35.8794 17.2889 36.0196 17.2457L36.0348 17.2415L38.2862 16.5391C38.3264 16.5325 38.3675 16.5325 38.4078 16.5391C38.465 16.538 38.5216 16.5502 38.5732 16.5744L38.5923 16.5841C38.6751 16.6237 38.7361 16.6979 38.7589 16.7866C39.0427 18.1375 40.2629 18.9435 42.0189 18.9435C43.6534 18.9435 44.3964 18.088 44.3964 17.3135C44.3964 16.5476 43.7489 15.9798 42.6327 15.7453L42.5953 15.7376L40.0693 15.2468C37.7143 14.801 36.2465 13.3376 36.2465 11.433C36.2465 9.11408 38.7365 7.15091 41.6767 7.15091ZM132.487 3.40019H134.455C134.687 3.41413 134.869 3.60243 134.878 3.83306L134.878 3.85044V7.54717H137.246C137.477 7.56336 137.656 7.75083 137.665 7.97973L137.666 7.99742V9.9606L137.665 9.97769C137.659 10.1978 137.484 10.3766 137.264 10.3878L137.246 10.3884H134.878V16.9578C134.878 18.0474 135.31 18.4977 136.422 18.4977C136.647 18.4938 136.873 18.4767 137.096 18.4466L137.179 18.4346C137.302 18.4139 137.427 18.4485 137.521 18.5293C137.606 18.6081 137.657 18.7165 137.665 18.8318L137.666 18.8535V20.704C137.667 20.8926 137.544 21.0597 137.364 21.1138C136.845 21.259 136.31 21.3318 135.771 21.3306L135.698 21.3299C133.348 21.3299 131.882 19.8338 131.853 17.4141L131.853 17.3405V10.4154H129.804C129.58 10.4022 129.401 10.227 129.382 10.0057L129.38 9.98762V8.01541C129.38 7.78275 129.557 7.58911 129.786 7.56654L129.804 7.56517L130.354 7.5651L130.413 7.56405C131.056 7.54558 132.044 7.28499 132.064 5.84979L132.064 5.80457V3.85044C132.063 3.61777 132.241 3.42414 132.47 3.40156L132.487 3.40019ZM94.2436 7.15346L94.2952 7.15546H94.2906C96.6087 7.15546 98.9489 8.77059 98.9954 12.298L98.9961 12.4055V20.7446C98.9856 20.9683 98.8118 21.149 98.5909 21.1709L98.5729 21.1723H96.4159C96.1926 21.1591 96.0139 20.9839 95.9939 20.7626L95.9927 20.7446V12.6757L95.9923 12.6136C95.9792 11.5855 95.6297 9.93356 93.5121 9.93356C91.947 9.93356 90.8323 11.1516 90.8102 12.9235L90.8098 12.9774V20.7446C90.7993 20.9683 90.6262 21.149 90.4047 21.1709L90.3866 21.1723H88.2033C87.9792 21.1591 87.8006 20.9839 87.7813 20.7626L87.7801 20.7446V12.6757L87.7797 12.6136C87.7666 11.5855 87.4172 9.93356 85.2987 9.93356C83.6717 9.93356 82.57 11.1427 82.5482 12.9495L82.5478 13.0044V20.7446C82.5366 20.9683 82.3635 21.149 82.1426 21.1709L82.1246 21.1723H79.9676C79.7458 21.157 79.5693 20.9823 79.5502 20.7625L79.549 20.7446V7.96591C79.5596 7.74378 79.7304 7.5636 79.9497 7.53973L79.9676 7.53814H82.0435C82.2669 7.5513 82.4463 7.72656 82.4655 7.94787L82.4668 7.96591V8.73589C83.4005 7.71213 84.728 7.13693 86.1135 7.15546C87.7183 7.10843 89.2158 7.95687 89.9997 9.35719C90.9332 7.93081 92.5427 7.09635 94.2436 7.15346ZM126.539 8.74484C127.365 9.83343 127.791 11.1723 127.748 12.537L127.745 12.5946V20.7446C127.735 20.9667 127.564 21.1469 127.345 21.1708L127.327 21.1723H125.144C124.92 21.1591 124.741 20.9839 124.721 20.7626L124.72 20.7446V13.0315C124.72 11.0142 123.77 9.98762 121.969 9.98762C121.173 9.9619 120.413 10.3163 119.92 10.9422C119.443 11.6292 119.197 12.4491 119.216 13.284L119.218 13.3331V20.7446C119.207 20.9683 119.033 21.149 118.813 21.1709L118.795 21.1723H116.615C116.392 21.1591 116.212 20.9839 116.193 20.7626L116.192 20.7446V7.95687C116.203 7.73316 116.376 7.55243 116.597 7.53053L116.615 7.5291H118.745C118.967 7.54444 119.143 7.71918 119.163 7.93896L119.164 7.95687V8.85744C120.077 7.75059 121.448 7.12341 122.883 7.15546C124.281 7.09569 125.629 7.68178 126.539 8.74484ZM1.03984 15.616H16.5427C16.8275 15.6184 17.0577 15.8465 17.0649 16.1292L17.065 16.1473V18.088C17.0674 18.3729 16.8432 18.6069 16.5607 18.6188L16.5426 18.6193H1.03984C0.754901 18.6169 0.524831 18.3887 0.517517 18.1061V18.088V16.1473V16.1292C0.524678 15.8527 0.745075 15.6284 1.02134 15.6165L1.03984 15.616ZM70.4085 10.0146C68.2832 10.0146 66.9324 11.5276 66.9324 13.959C66.9324 16.3905 68.2651 17.8988 70.4085 17.8988C72.4527 17.8988 73.8305 16.3139 73.8305 13.959C73.8305 11.5995 72.4527 10.0146 70.4085 10.0146ZM52.3944 12.6454L52.3887 12.6937H58.796C58.64 10.982 57.4337 9.91459 55.627 9.89341L55.572 9.89309C53.9801 9.8672 52.6244 11.0316 52.4009 12.5978L52.3944 12.6454ZM104.225 12.6454L104.219 12.6937H110.627C110.471 10.982 109.264 9.91459 107.457 9.89341L107.403 9.89309C105.811 9.8672 104.455 11.0316 104.231 12.5978L104.225 12.6454ZM18.4833 0.8066C18.6175 0.855023 18.7263 0.95573 18.785 1.08578C18.8388 1.21707 18.8388 1.36427 18.785 1.49549L18.1096 3.29663C18.016 3.56369 17.724 3.70463 17.4567 3.6118C13.9184 2.37706 9.99218 3.07861 7.10048 5.46237C5.29834 6.97081 4.01873 9.01005 3.44429 11.2889C3.38483 11.519 3.17762 11.6799 2.93999 11.6806H2.82291L0.967783 11.2349C0.829466 11.2024 0.710687 11.1144 0.639095 10.9917H0.63006C0.554993 10.869 0.533832 10.7208 0.571597 10.582C1.30829 7.66487 2.95667 5.059 5.27687 3.14348C8.96626 0.106131 13.9757 -0.780307 18.4833 0.8066ZM11.6167 8.5873H27.1195C27.3973 8.58956 27.6244 8.8069 27.641 9.08213L27.6418 9.10056V11.0413C27.6442 11.3262 27.4201 11.5602 27.1376 11.5721L27.1195 11.5726H11.6167C11.3336 11.5678 11.1062 11.3405 11.099 11.0596L11.0988 11.0413V9.11856C11.0964 8.83549 11.3177 8.60235 11.5983 8.58792L11.6167 8.5873ZM22.3787 2.66618L22.4054 2.66597L22.4322 2.6662C23.2925 2.67606 23.9852 3.37172 23.9946 4.22882L23.9946 4.25566C23.9946 4.26462 23.9945 4.27358 23.9944 4.28246C23.9795 5.16017 23.2558 5.85956 22.3781 5.84465C21.5004 5.82975 20.801 5.10611 20.8159 4.22848C20.8305 3.3686 21.5252 2.67992 22.3787 2.66618Z" fill="#4FB58B"/>
</svg>
